<svg xmlns="http://www.w3.org/2000/svg" viewBox="0 -0.5 32 32" shape-rendering="crispEdges">
    <path stroke="#241b0c" d="M11 4h7M10 5h1M18 5h2M29 5h3M9 6h1M14 6h5M20 6h1M28 6h1M8 7h1M19 7h1M21 7h1M27 7h1M7 8h1M19 8h1M22 8h1M26 8h1M6 9h1M20 9h1M22 9h1M26 9h1M5 10h1M20 10h1M23 10h1M25 10h1M5 11h1M21 11h1M24 11h1M4 12h1M21 12h4M4 13h1M19 13h1M25 13h1M3 14h1M18 14h1M26 14h1M2 15h1M6 15h1M17 15h1M21 15h1M26 15h1M1 16h1M6 16h1M17 16h1M21 16h2M27 16h1M0 17h1M4 17h2M17 17h1M27 17h1M0 18h1M3 18h1M5 18h1M18 18h1M28 18h1M0 19h1M2 19h1M5 19h1M11 19h1M18 19h1M29 19h1M0 20h1M2 20h1M5 20h1M11 20h1M19 20h2M29 20h1M0 21h1M2 21h1M6 21h1M11 21h1M20 21h2M29 21h1M0 22h1M2 22h1M6 22h1M12 22h1M16 22h1M22 22h7M0 23h1M2 23h1M10 23h1M13 23h5M23 23h1M27 23h1M1 24h1M3 24h1M7 24h1M11 24h2M14 24h2M18 24h1M22 24h1M24 24h1M28 24h1M2 25h1M4 25h1M8 25h1M12 25h2M15 25h1M18 25h1M22 25h1M25 25h1M28 25h1M3 26h1M5 26h1M8 26h5M16 26h1M18 26h1M23 26h1M25 26h1M29 26h1M4 27h1M6 27h1M8 27h1M13 27h1M17 27h1M19 27h1M23 27h1M25 27h1M29 27h1M5 28h2M9 28h1M14 28h1M18 28h2M24 28h1M26 28h1M30 28h1M6 29h1M9 29h2M20 29h2M27 29h1M10 30h1" />
    <path stroke="#d4d3db" d="M11 5h7M10 6h4M19 6h1M9 7h6M20 7h1M8 8h7M20 8h2M7 9h9M21 9h1M6 10h10M21 10h2M6 11h4M11 11h1M13 11h4M22 11h2M5 12h4M11 12h1M13 12h5M5 13h1M7 13h2M15 13h4M20 13h1M22 13h2M4 14h1M7 14h3M15 14h3M19 14h6M3 15h1M9 15h1M15 15h2M19 15h1M23 15h3M2 16h1M16 16h1M19 16h2M24 16h3M21 17h1M24 17h3M22 18h2M26 18h1" />
    <path stroke="#cdcad5" d="M29 6h1M28 7h1M27 8h1M26 10h1M25 11h1" />
    <path stroke="#a2a5ac" d="M30 6h1M18 7h1M29 7h1M18 8h1M28 8h1M19 9h1M27 9h1M19 10h1M20 11h1M26 11h1M9 12h1M20 12h1M25 12h1M6 13h1M9 13h2M12 13h1M21 13h1M24 13h1M5 14h2M10 14h2M13 14h1M25 14h1M4 15h2M8 15h1M10 15h5M18 15h1M3 16h1M8 16h7M18 16h1M1 17h2M9 17h1M11 17h6M18 17h3M22 17h1M1 18h1M11 18h5M19 18h3M24 18h1M27 18h1M12 19h3M19 19h5M12 20h3M21 20h4M12 21h2M22 29h1" />
    <path stroke="#58564f" d="M15 7h1M30 7h1M15 8h1M30 8h1M16 9h1M29 9h1M16 10h2M29 10h1M17 11h1M28 11h1M18 12h1M27 12h1M26 13h1M20 15h1M22 15h1M23 16h1M23 17h1M28 20h1M22 21h4M27 21h2M7 22h1M3 25h1M4 26h1M5 27h1M10 28h1M14 29h1M21 30h1" />
    <path stroke="#a48f70" d="M16 7h2M16 8h2M29 8h1" />
    <path stroke="#9d6542" d="M17 9h2M28 9h1M18 10h1M28 10h1" />
    <path stroke="#923321" d="M27 10h1M18 11h2M27 11h1M19 12h1M26 12h1" />
    <path stroke="#8f8f8f" d="M10 11h1M12 11h1M10 12h1M12 12h1M11 13h1M13 13h2M12 14h1M14 14h1M4 16h2M7 16h1M15 16h1M3 17h1M8 17h1M2 18h1M9 18h1M25 18h1M1 19h1M9 19h1M24 19h5M1 20h1M7 20h1M25 20h2M1 21h1M26 21h1M1 22h1M17 22h1M1 23h1M18 23h1M2 24h1M19 24h1M19 25h1M19 26h1M20 27h1M11 28h2M20 28h2" />
    <path stroke="#585953" d="M7 15h1M6 17h2M10 17h1M6 18h3M10 18h1M17 18h1M6 19h3M10 19h1M16 19h2M6 20h1M8 20h3M15 20h4M7 21h4M14 21h1M16 21h4M8 22h4M13 22h3M18 22h2M9 23h1M11 23h2M19 23h2M9 24h1M20 25h1M26 25h1M20 26h2M26 26h2M9 27h2M21 27h1M26 27h2M22 28h2M27 28h2" />
    <path stroke="#2a2c1e" d="M16 18h1M15 19h1M27 20h1M15 21h1M20 22h2M7 23h2M21 23h2M24 23h3M8 24h1M10 24h1M13 24h1M16 24h2M20 24h2M25 24h3M9 25h3M16 25h2M21 25h1M27 25h1M17 26h1M22 26h1M28 26h1M11 27h2M18 27h1M22 27h1M28 27h1M13 28h1M15 29h1M25 29h1M30 29h1M11 30h1M13 30h1M15 30h1M22 30h1M24 30h1M26 30h1M28 30h1M30 30h1M12 31h3M22 31h5M29 31h1" />
    <path stroke="#8a8f93" d="M29 28h1M11 29h3M23 29h2M28 29h2M12 30h1M14 30h1M23 30h1M25 30h1M29 30h1" />
</svg>