<svg xmlns="http://www.w3.org/2000/svg" viewBox="0 -0.5 16 16" shape-rendering="crispEdges">
    <path stroke="#38050b" d="M3 0h9M2 1h1M12 1h1M1 2h1M13 2h1M0 3h1M14 3h1M0 4h1M15 4h1M0 5h1M15 5h1M0 6h1M15 6h1M0 7h1M15 7h1M0 8h1M15 8h1M0 9h1M14 9h2M1 10h1M13 10h2M2 11h2M12 11h2M2 12h1M4 12h8M2 13h1M6 13h1M1 14h1M5 14h1M1 15h4" />
    <path stroke="#e26d5c" d="M3 1h5M10 1h1M8 2h1M11 2h1M1 3h1M5 3h3M9 3h1M12 3h1M3 4h3M8 4h3M2 5h3M9 5h2M3 6h2M6 6h3M10 6h2M2 7h1M5 7h1M7 7h2M10 7h2M4 8h3M8 8h1M10 8h2M6 9h4M3 13h1M2 14h2" />
    <path stroke="#f7a1ab" d="M8 1h1M11 1h1M9 2h1M12 2h1M10 3h1M13 3h1M11 4h1M14 4h1" />
    <path stroke="#9c2d1c" d="M9 1h1M2 2h1M5 2h3M10 2h1M3 3h2M11 3h1M1 4h2M12 4h1M6 5h3M13 5h1M1 6h2M5 6h1M9 6h1M13 6h1M4 7h1M6 7h1M13 7h1M3 8h1M7 8h1M13 8h1M2 9h1M13 9h1M12 10h1M4 11h8" />
    <path stroke="#f05668" d="M3 2h2M2 3h1M8 3h1M6 4h2M13 4h1M1 5h1M5 5h1M11 5h2M14 5h1M12 6h1M14 6h1M3 7h1M9 7h1M12 7h1M14 7h1M9 8h1M12 8h1M4 9h2M10 9h2M3 10h7M5 13h1M4 14h1" />
    <path stroke="#c3423f" d="M1 7h1M1 8h2M14 8h1M1 9h1M3 9h1M12 9h1M2 10h1M10 10h2M3 12h1M4 13h1" />
</svg>