<svg xmlns="http://www.w3.org/2000/svg" viewBox="0 -0.5 14 16" shape-rendering="crispEdges">
    <path stroke="#1f1f1f" d="M0 0h4M10 0h4M0 1h1M3 1h1M10 1h1M13 1h1M0 2h1M3 2h1M10 2h1M13 2h1M0 3h1M4 3h1M9 3h1M13 3h1M1 4h1M5 4h1M8 4h1M12 4h1M2 5h1M6 5h2M11 5h1M3 6h1M6 6h1M10 6h1M4 7h2M9 7h1M4 8h1M8 8h2M3 9h1M7 9h1M10 9h1M2 10h1M6 10h2M11 10h1M1 11h1M5 11h1M8 11h1M12 11h1M0 12h1M4 12h1M9 12h1M13 12h1M0 13h1M3 13h1M10 13h1M13 13h1M0 14h1M3 14h1M10 14h1M13 14h1M0 15h4M10 15h4" />
    <path stroke="#c4c4c4" d="M1 1h1M12 1h1M1 2h1M12 2h1M2 3h1M11 3h1M3 4h1M10 4h1M4 5h1M9 5h1M5 6h1M8 6h1M7 7h1M6 8h1M5 9h1M8 9h1M4 10h1M9 10h1M3 11h1M10 11h1M2 12h1M11 12h1M2 13h1M11 13h2M12 14h1" />
    <path stroke="#ffffff" d="M2 1h1M11 1h1M2 2h1M11 2h1M3 3h1M10 3h1M4 4h1M9 4h1M5 5h1M8 5h1M7 6h1M6 7h1M5 8h1M4 9h1M9 9h1M3 10h1M10 10h1M2 11h1M11 11h1M1 12h1M12 12h1M1 13h1M1 14h1" />
    <path stroke="#c3423f" d="M4 1h1M6 1h1M6 3h1" />
    <path stroke="#dd5f5d" d="M5 1h1M5 3h1" />
    <path stroke="#3ccd60" d="M7 1h1M9 1h1M7 3h1" />
    <path stroke="#8de2a3" d="M8 1h1M8 3h1" />
    <path stroke="#757575" d="M1 3h1M12 3h1M2 4h1M11 4h1M3 5h1M10 5h1M4 6h1M9 6h1M8 7h1M7 8h1M6 9h1M5 10h1M8 10h1M4 11h1M9 11h1M3 12h1M10 12h1M2 14h1M11 14h1" />
    <path stroke="#6bbbdb" d="M5 12h1M5 14h1" />
    <path stroke="#009ddc" d="M6 12h1M4 14h1M6 14h1" />
    <path stroke="#efa52e" d="M7 12h1M7 14h1M9 14h1" />
    <path stroke="#f6ca83" d="M8 12h1M8 14h1" />
</svg>