<svg xmlns="http://www.w3.org/2000/svg" viewBox="0 -0.5 16 16" shape-rendering="crispEdges">
    <path stroke="#1f1f1f" d="M3 0h10M2 1h1M13 1h1M1 2h1M14 2h1M0 3h1M15 3h1M0 4h1M15 4h1M0 5h1M15 5h1M0 6h1M15 6h1M0 7h1M15 7h1M0 8h1M15 8h1M0 9h1M15 9h1M0 10h1M15 10h1M0 11h1M15 11h1M0 12h1M15 12h1M1 13h1M14 13h1M2 14h1M13 14h1M3 15h10" />
    <path stroke="#c4c4c4" d="M3 1h10M2 2h12M1 3h14M1 4h3M12 4h3M1 5h2M13 5h2M1 6h3M12 6h3M1 7h4M11 7h4M1 8h5M10 8h5M1 9h6M9 9h6M2 10h12M3 11h10" />
    <path stroke="#757575" d="M4 4h8M3 5h1M1 11h1M14 11h1M1 12h2M13 12h2M2 13h12M3 14h10" />
    <path stroke="#ffffff" d="M4 5h9M4 6h8M5 7h6M6 8h4M7 9h2M1 10h1M14 10h1M2 11h1M13 11h1M3 12h10" />
</svg>