<svg xmlns="http://www.w3.org/2000/svg" viewBox="0 -0.5 24 24" shape-rendering="crispEdges">
    <path stroke="#2c3a38" d="M10 0h4M8 1h2M14 1h2M7 2h1M16 2h1M6 3h1M17 3h1M5 4h1M18 4h1M5 5h1M18 5h1M4 6h1M19 6h1M4 7h1M19 7h1M4 8h1M19 8h1M3 9h1M20 9h1M3 10h1M20 10h1M3 11h1M20 11h1M3 12h1M20 12h1M3 13h1M20 13h1M3 14h1M20 14h1M3 15h1M20 15h1M4 16h1M19 16h1M4 17h1M19 17h1M5 18h1M18 18h1M5 19h1M18 19h1M6 20h1M17 20h1M7 21h1M16 21h1M8 22h2M14 22h2M10 23h4" />
    <path stroke="#aec2be" d="M10 1h4M8 2h1M7 3h1M6 4h1M6 5h1M5 6h1M5 7h1M5 8h1M4 9h1M19 9h1M4 10h1M19 10h1M4 11h1M19 11h1M4 12h1M19 12h1M4 13h1M19 13h1M5 14h1M18 14h1M5 15h1M18 15h1M6 17h1M17 17h1M7 18h1M16 18h1M8 19h1M15 19h1M9 20h6" />
    <path stroke="#dce5e5" d="M9 2h2M8 3h2M13 3h3M8 4h2M12 4h2M15 4h2M8 5h1M12 5h3M16 5h2M7 6h2M13 6h2M17 6h1M7 7h1M13 7h2M17 7h1M7 8h1M14 8h2M17 8h1M6 9h2M14 9h2M17 9h2M6 10h2M15 10h1M17 10h1M6 11h2M15 11h3M6 12h2M16 12h1M6 13h3M7 14h2M7 15h3M7 16h4M8 17h4M16 17h1M8 18h8M9 19h6" />
    <path stroke="#d0dcda" d="M11 2h5M10 3h3M16 3h1M10 4h2M17 4h1M9 5h3M9 6h4M18 6h1M8 7h5M18 7h1M8 8h6M18 8h1M8 9h6M8 10h7M18 10h1M8 11h7M18 11h1M8 12h8M17 12h2M9 13h10M9 14h9M10 15h8M11 16h7M12 17h4" />
    <path stroke="#f3f6f6" d="M7 4h1M14 4h1M7 5h1M15 5h1M6 6h1M15 6h2M6 7h1M15 7h2M6 8h1M16 8h1M5 9h1M16 9h1M5 10h1M16 10h1M5 11h1M5 12h1M5 13h1M6 14h1M6 15h1M6 16h1M7 17h1" />
    <path stroke="#698c86" d="M4 14h1M19 14h1M5 16h1M18 16h1M6 18h1M17 18h1M7 19h1M16 19h1M8 20h1M15 20h1M10 21h4" />
    <path stroke="#587474" d="M4 15h1M19 15h1M5 17h1M18 17h1M6 19h1M17 19h1M7 20h1M16 20h1M8 21h2M14 21h2M10 22h4" />
</svg>