<svg xmlns="http://www.w3.org/2000/svg" viewBox="0 -0.5 16 16" shape-rendering="crispEdges">
    <path stroke="#041007" d="M1 3h13M0 4h1M14 4h1M0 5h1M14 5h1M0 6h1M15 6h1M0 7h1M15 7h1M0 8h1M15 8h1M0 9h1M15 9h1M0 10h1M14 10h1M0 11h1M14 11h1M1 12h13" />
    <path stroke="#21823a" d="M1 4h13M1 5h1M4 5h1M7 5h1M10 5h1M13 5h1M1 6h1M4 6h1M7 6h1M10 6h1M13 6h2M1 7h1M4 7h1M7 7h1M10 7h1M14 7h1M1 8h1M4 8h1M7 8h1M10 8h1M14 8h1M1 9h1M4 9h1M7 9h1M10 9h1M13 9h2M1 10h1M4 10h1M7 10h1M10 10h1M13 10h1M1 11h13" />
    <path stroke="#2ba84a" d="M2 5h2M5 5h2M8 5h2M11 5h2M2 10h2M5 10h2M8 10h2M11 10h2" />
    <path stroke="#5dd57b" d="M2 6h2M5 6h2M8 6h2M11 6h2M2 7h2M5 7h2M8 7h2M11 7h2" />
    <path stroke="#3ccd60" d="M13 7h1M2 8h2M5 8h2M8 8h2M11 8h3M2 9h2M5 9h2M8 9h2M11 9h2" />
</svg>