<svg xmlns="http://www.w3.org/2000/svg" viewBox="0 -0.5 13 16" shape-rendering="crispEdges">
    <path stroke="#2f0f0f" d="M2 0h8M1 1h1M10 1h1M0 2h1M11 2h1M0 3h1M11 3h1M0 4h1M9 4h3M0 5h1M2 5h1M8 5h1M12 5h1M0 6h1M3 6h5M12 6h1M0 7h1M7 7h1M12 7h1M0 8h1M8 8h2M12 8h1M0 9h1M12 9h1M0 10h1M11 10h1M1 11h2M9 11h2M1 12h1M3 12h6M10 12h1M1 13h1M10 13h1M2 14h1M9 14h1M3 15h6" />
    <path stroke="#d03c25" d="M2 1h8M10 2h1M10 3h1M11 5h1M11 6h1M11 7h1M11 8h1M11 9h1M10 10h1M9 12h1M9 13h1M8 14h1" />
    <path stroke="#9c2d1c" d="M1 2h1M2 3h8M1 4h8M1 5h1M3 5h5M9 5h2M1 6h1M8 6h3M1 7h2M8 7h3M1 8h6M10 8h1M1 9h5M7 9h4M1 10h5M7 10h3M3 14h5" />
    <path stroke="#e26d5c" d="M2 2h8M1 3h1" />
    <path stroke="#792315" d="M2 6h1M3 7h4M7 8h1M6 9h1M6 10h1M3 11h6M2 12h1M2 13h7" />
</svg>