<svg xmlns="http://www.w3.org/2000/svg" viewBox="0 -0.5 16 16" shape-rendering="crispEdges">
    <path stroke="#000000" d="M7 0h2M6 1h1M9 1h1M5 2h1M10 2h1M4 3h1M11 3h1M3 4h1M12 4h1M2 5h1M13 5h1M2 6h1M13 6h1M1 7h1M14 7h1M1 8h1M14 8h1M1 9h1M14 9h1M1 10h1M14 10h1M1 11h1M14 11h1M2 12h1M13 12h1M2 13h1M13 13h1M3 14h2M11 14h2M5 15h6" />
    <path stroke="#d03c25" d="M7 1h2M6 2h4M5 3h6M4 4h5M10 4h2M3 5h7M11 5h2M3 6h8M12 6h1M3 7h8M12 7h1M3 8h8M12 8h1M4 9h8M5 10h6" />
    <path stroke="#e26d5c" d="M9 4h1M10 5h1M11 6h1M11 7h1M11 8h1" />
    <path stroke="#9c2d1c" d="M2 7h1M13 7h1M2 8h1M13 8h1M2 9h2M12 9h2M2 10h3M11 10h3M2 11h12M3 12h10M3 13h10M5 14h6" />
</svg>