<svg xmlns="http://www.w3.org/2000/svg" viewBox="0 -0.5 16 16" shape-rendering="crispEdges">
    <path stroke="#2f0f0f" d="M3 0h3M10 0h3M2 1h1M6 1h1M9 1h1M13 1h1M1 2h1M7 2h2M14 2h1M0 3h1M15 3h1M0 4h1M15 4h1M0 5h1M15 5h1M0 6h1M15 6h1M0 7h1M15 7h1M0 8h1M15 8h1M1 9h1M14 9h1M2 10h1M13 10h1M3 11h1M12 11h1M4 12h1M11 12h1M5 13h1M10 13h1M6 14h1M9 14h1M7 15h2" />
    <path stroke="#9c2d1c" d="M3 1h3M10 1h3M2 2h1M6 2h1M9 2h1M13 2h1M1 3h1M7 3h2M14 3h1M1 4h1M14 4h1M1 5h1M14 5h1M1 6h1M14 6h1M1 7h1M14 7h1M1 8h1M14 8h1M2 9h1M13 9h1M3 10h1M12 10h1M4 11h1M11 11h1M5 12h1M10 12h1M6 13h1M9 13h1M7 14h2" />
    <path stroke="#d03c25" d="M3 2h2M10 2h2M2 3h4M9 3h4M2 4h4M7 4h6M2 5h11M2 6h12M2 7h12M2 8h12M3 9h10M4 10h8M5 11h6M6 12h4M7 13h2" />
    <path stroke="#e26d5c" d="M5 2h1M12 2h1M6 3h1M13 3h1M6 4h1M13 4h1M13 5h1" />
</svg>