<svg xmlns="http://www.w3.org/2000/svg" viewBox="0 -0.5 180 240" shape-rendering="crispEdges">
    <path stroke="#000000" d="M10 0h160M8 1h2M170 1h2M6 2h2M172 2h2M5 3h1M174 3h1M4 4h1M175 4h1M3 5h1M176 5h1M2 6h1M177 6h1M2 7h1M177 7h1M1 8h1M178 8h1M1 9h1M178 9h1M0 10h1M179 10h1M0 11h1M179 11h1M0 12h1M179 12h1M0 13h1M179 13h1M0 14h1M179 14h1M0 15h1M179 15h1M0 16h1M179 16h1M0 17h1M179 17h1M0 18h1M179 18h1M0 19h1M179 19h1M0 20h1M179 20h1M0 21h1M179 21h1M0 22h1M179 22h1M0 23h1M179 23h1M0 24h1M179 24h1M0 25h1M179 25h1M0 26h1M179 26h1M0 27h1M179 27h1M0 28h1M179 28h1M0 29h1M179 29h1M0 30h1M179 30h1M0 31h1M179 31h1M0 32h1M179 32h1M0 33h1M179 33h1M0 34h1M179 34h1M0 35h1M179 35h1M0 36h1M179 36h1M0 37h1M179 37h1M0 38h1M179 38h1M0 39h1M179 39h1M0 40h1M179 40h1M0 41h1M179 41h1M0 42h1M179 42h1M0 43h1M179 43h1M0 44h1M179 44h1M0 45h1M31 45h119M179 45h1M0 46h1M30 46h1M179 46h1M0 47h1M30 47h1M179 47h1M0 48h1M30 48h1M179 48h1M0 49h1M30 49h1M179 49h1M0 50h1M30 50h1M179 50h1M0 51h1M30 51h1M179 51h1M0 52h1M30 52h1M179 52h1M0 53h1M30 53h1M179 53h1M0 54h1M30 54h1M179 54h1M0 55h1M30 55h1M179 55h1M0 56h1M30 56h1M179 56h1M0 57h1M30 57h1M179 57h1M0 58h1M30 58h1M179 58h1M0 59h1M30 59h1M179 59h1M0 60h1M30 60h1M179 60h1M0 61h1M30 61h1M179 61h1M0 62h1M30 62h1M179 62h1M0 63h1M30 63h1M179 63h1M0 64h1M30 64h1M179 64h1M0 65h1M30 65h1M179 65h1M0 66h1M30 66h1M179 66h1M0 67h1M30 67h1M179 67h1M0 68h1M30 68h1M179 68h1M0 69h1M30 69h1M179 69h1M0 70h1M30 70h1M179 70h1M0 71h1M30 71h1M179 71h1M0 72h1M30 72h1M179 72h1M0 73h1M30 73h1M179 73h1M0 74h1M30 74h1M179 74h1M0 75h1M30 75h1M179 75h1M0 76h1M30 76h1M179 76h1M0 77h1M30 77h1M179 77h1M0 78h1M30 78h1M179 78h1M0 79h1M30 79h1M179 79h1M0 80h1M30 80h1M179 80h1M0 81h1M30 81h1M179 81h1M0 82h1M30 82h1M179 82h1M0 83h1M30 83h1M179 83h1M0 84h1M30 84h1M179 84h1M0 85h1M30 85h1M179 85h1M0 86h1M30 86h1M179 86h1M0 87h1M30 87h1M179 87h1M0 88h1M30 88h1M179 88h1M0 89h1M30 89h1M179 89h1M0 90h1M30 90h1M179 90h1M0 91h1M30 91h1M179 91h1M0 92h1M30 92h1M179 92h1M0 93h1M30 93h1M179 93h1M0 94h1M30 94h1M179 94h1M0 95h1M30 95h1M179 95h1M0 96h1M30 96h1M179 96h1M0 97h1M30 97h1M179 97h1M0 98h1M30 98h1M179 98h1M0 99h1M30 99h1M179 99h1M0 100h1M30 100h1M179 100h1M0 101h1M30 101h1M179 101h1M0 102h1M30 102h1M179 102h1M0 103h1M30 103h1M179 103h1M0 104h1M30 104h1M179 104h1M0 105h1M30 105h1M179 105h1M0 106h1M30 106h1M179 106h1M0 107h1M30 107h1M179 107h1M0 108h1M30 108h1M179 108h1M0 109h1M30 109h1M179 109h1M0 110h1M30 110h1M179 110h1M0 111h1M30 111h1M179 111h1M0 112h1M30 112h1M179 112h1M0 113h1M30 113h1M179 113h1M0 114h1M30 114h1M179 114h1M0 115h1M30 115h1M179 115h1M0 116h1M30 116h1M179 116h1M0 117h1M30 117h1M179 117h1M0 118h1M30 118h1M179 118h1M0 119h1M30 119h1M179 119h1M0 120h1M30 120h1M179 120h1M0 121h1M30 121h1M179 121h1M0 122h1M30 122h1M179 122h1M0 123h1M30 123h1M179 123h1M0 124h1M30 124h1M179 124h1M0 125h1M30 125h1M179 125h1M0 126h1M30 126h1M179 126h1M0 127h1M30 127h1M179 127h1M0 128h1M30 128h1M179 128h1M0 129h1M30 129h1M179 129h1M0 130h1M30 130h1M179 130h1M0 131h1M30 131h1M179 131h1M0 132h1M30 132h1M179 132h1M0 133h1M30 133h1M179 133h1M0 134h1M30 134h1M179 134h1M0 135h1M179 135h1M0 136h1M179 136h1M0 137h1M179 137h1M0 138h1M179 138h1M0 139h1M179 139h1M0 140h1M179 140h1M0 141h1M179 141h1M0 142h1M179 142h1M0 143h1M179 143h1M0 144h1M179 144h1M0 145h1M179 145h1M0 146h1M179 146h1M0 147h1M179 147h1M0 148h1M179 148h1M0 149h1M179 149h1M0 150h1M179 150h1M0 151h1M179 151h1M0 152h1M179 152h1M0 153h1M179 153h1M0 154h1M179 154h1M0 155h1M179 155h1M0 156h1M179 156h1M0 157h1M179 157h1M0 158h1M179 158h1M0 159h1M179 159h1M0 160h1M179 160h1M0 161h1M179 161h1M0 162h1M179 162h1M0 163h1M179 163h1M0 164h1M179 164h1M0 165h1M179 165h1M0 166h1M179 166h1M0 167h1M179 167h1M0 168h1M179 168h1M0 169h1M179 169h1M0 170h1M179 170h1M0 171h1M179 171h1M0 172h1M179 172h1M0 173h1M179 173h1M0 174h1M179 174h1M0 175h1M179 175h1M0 176h1M179 176h1M0 177h1M179 177h1M0 178h1M179 178h1M0 179h1M179 179h1M0 180h1M179 180h1M0 181h1M179 181h1M0 182h1M179 182h1M0 183h1M179 183h1M0 184h1M179 184h1M0 185h1M179 185h1M0 186h1M179 186h1M0 187h1M179 187h1M0 188h1M179 188h1M0 189h1M179 189h1M0 190h1M179 190h1M0 191h1M179 191h1M0 192h1M179 192h1M0 193h1M179 193h1M0 194h1M179 194h1M0 195h1M179 195h1M0 196h1M179 196h1M0 197h1M179 197h1M0 198h1M179 198h1M0 199h1M179 199h1M0 200h1M150 200h4M179 200h1M0 201h1M149 201h1M154 201h1M179 201h1M0 202h1M148 202h1M151 202h2M155 202h1M179 202h1M0 203h1M148 203h1M150 203h1M155 203h1M163 203h3M179 203h1M0 204h1M148 204h1M155 204h5M162 204h1M166 204h1M179 204h1M0 205h1M146 205h2M160 205h2M164 205h1M166 205h1M179 205h1M0 206h1M145 206h1M165 206h1M179 206h1M0 207h1M145 207h1M166 207h1M179 207h1M0 208h1M144 208h1M166 208h1M179 208h1M0 209h1M143 209h1M160 209h1M164 209h1M179 209h1M0 210h1M143 210h1M154 210h6M166 210h1M179 210h1M0 211h1M143 211h1M153 211h1M160 211h1M167 211h1M179 211h1M0 212h1M142 212h1M152 212h1M161 212h1M163 212h3M167 212h1M179 212h1M0 213h1M142 213h1M150 213h2M162 213h1M166 213h1M168 213h1M179 213h1M0 214h1M142 214h1M146 214h4M160 214h4M166 214h1M168 214h1M179 214h1M0 215h1M143 215h2M150 215h10M161 215h1M164 215h2M167 215h1M169 215h1M179 215h1M0 216h1M145 216h1M158 216h1M161 216h1M163 216h1M165 216h1M167 216h1M169 216h1M179 216h1M0 217h1M146 217h1M159 217h1M161 217h1M163 217h1M165 217h1M167 217h2M179 217h1M0 218h1M147 218h1M159 218h1M161 218h1M163 218h1M165 218h1M167 218h1M179 218h1M0 219h1M148 219h1M159 219h1M161 219h1M163 219h1M165 219h3M179 219h1M0 220h1M149 220h2M159 220h1M161 220h1M163 220h3M167 220h1M179 220h1M0 221h1M151 221h2M159 221h1M161 221h3M165 221h1M167 221h1M170 221h1M179 221h1M0 222h1M153 222h9M163 222h1M165 222h1M168 222h2M179 222h1M0 223h1M146 223h4M156 223h1M159 223h1M161 223h1M163 223h1M166 223h1M179 223h1M0 224h1M145 224h1M150 224h1M157 224h2M161 224h1M164 224h1M166 224h1M168 224h1M171 224h1M179 224h1M0 225h1M144 225h1M147 225h2M151 225h1M154 225h1M161 225h1M164 225h1M166 225h1M169 225h2M179 225h1M0 226h1M144 226h1M146 226h1M151 226h1M155 226h2M161 226h1M164 226h1M166 226h1M179 226h1M0 227h1M144 227h1M146 227h1M151 227h1M158 227h1M161 227h1M164 227h1M166 227h1M179 227h1M0 228h1M144 228h1M147 228h2M151 228h1M158 228h1M161 228h1M164 228h1M167 228h2M179 228h1M0 229h1M145 229h1M150 229h1M159 229h2M164 229h1M179 229h1M1 230h1M146 230h4M164 230h1M166 230h1M168 230h1M178 230h1M1 231h1M161 231h3M167 231h1M178 231h1M2 232h1M177 232h1M2 233h1M177 233h1M3 234h1M176 234h1M4 235h1M175 235h1M5 236h1M174 236h1M6 237h2M172 237h2M8 238h2M170 238h2M10 239h160" />
    <path stroke="#61747c" d="M10 1h160M8 2h2M170 2h2M6 3h2M172 3h2M5 4h1M174 4h1M4 5h1M175 5h1M3 6h1M176 6h1M3 7h1M176 7h1M2 8h1M77 8h1M173 8h1M177 8h1M2 9h1M77 9h1M173 9h1M177 9h1M1 10h1M78 10h1M174 10h1M178 10h1M1 11h1M78 11h1M174 11h1M178 11h1M1 12h1M78 12h1M174 12h1M178 12h1M1 13h1M78 13h1M174 13h1M178 13h1M1 14h1M78 14h1M174 14h1M178 14h1M1 15h1M78 15h1M174 15h1M178 15h1M1 16h1M78 16h1M174 16h1M178 16h1M1 17h1M78 17h1M174 17h1M178 17h1M1 18h1M77 18h1M173 18h1M178 18h1M1 19h1M77 19h1M173 19h1M178 19h1M1 20h1M76 20h1M172 20h1M178 20h1M1 21h1M8 21h2M74 21h2M156 21h2M170 21h2M178 21h1M1 22h1M10 22h64M158 22h12M178 22h1M1 23h1M178 23h1M1 24h1M178 24h1M1 25h1M178 25h1M1 26h1M178 26h1M1 27h1M178 27h1M1 28h1M178 28h1M1 29h1M178 29h1M1 30h1M178 30h1M1 31h1M178 31h1M1 32h1M178 32h1M1 33h1M178 33h1M1 34h1M178 34h1M1 35h1M178 35h1M1 36h1M178 36h1M1 37h1M178 37h1M1 38h1M178 38h1M1 39h1M178 39h1M1 40h1M178 40h1M1 41h1M178 41h1M1 42h1M178 42h1M1 43h1M178 43h1M1 44h1M178 44h1M1 45h1M178 45h1M1 46h1M150 46h1M178 46h1M1 47h1M150 47h1M178 47h1M1 48h1M150 48h1M178 48h1M1 49h1M150 49h1M178 49h1M1 50h1M150 50h1M178 50h1M1 51h1M150 51h1M178 51h1M1 52h1M150 52h1M178 52h1M1 53h1M150 53h1M178 53h1M1 54h1M150 54h1M178 54h1M1 55h1M150 55h1M178 55h1M1 56h1M150 56h1M178 56h1M1 57h1M150 57h1M178 57h1M1 58h1M150 58h1M178 58h1M1 59h1M150 59h1M178 59h1M1 60h1M150 60h1M178 60h1M1 61h1M150 61h1M178 61h1M1 62h1M150 62h1M178 62h1M1 63h1M150 63h1M178 63h1M1 64h1M150 64h1M178 64h1M1 65h1M150 65h1M178 65h1M1 66h1M150 66h1M178 66h1M1 67h1M150 67h1M178 67h1M1 68h1M150 68h1M178 68h1M1 69h1M150 69h1M178 69h1M1 70h1M150 70h1M178 70h1M1 71h1M150 71h1M178 71h1M1 72h1M150 72h1M178 72h1M1 73h1M150 73h1M178 73h1M1 74h1M150 74h1M178 74h1M1 75h1M150 75h1M178 75h1M1 76h1M150 76h1M178 76h1M1 77h1M150 77h1M178 77h1M1 78h1M150 78h1M178 78h1M1 79h1M150 79h1M178 79h1M1 80h1M150 80h1M178 80h1M1 81h1M150 81h1M178 81h1M1 82h1M150 82h1M178 82h1M1 83h1M150 83h1M178 83h1M1 84h1M150 84h1M178 84h1M1 85h1M150 85h1M178 85h1M1 86h1M150 86h1M178 86h1M1 87h1M150 87h1M178 87h1M1 88h1M150 88h1M178 88h1M1 89h1M150 89h1M178 89h1M1 90h1M150 90h1M178 90h1M1 91h1M150 91h1M178 91h1M1 92h1M150 92h1M178 92h1M1 93h1M150 93h1M178 93h1M1 94h1M150 94h1M178 94h1M1 95h1M150 95h1M178 95h1M1 96h1M150 96h1M178 96h1M1 97h1M150 97h1M178 97h1M1 98h1M150 98h1M178 98h1M1 99h1M150 99h1M178 99h1M1 100h1M150 100h1M178 100h1M1 101h1M150 101h1M178 101h1M1 102h1M150 102h1M178 102h1M1 103h1M150 103h1M178 103h1M1 104h1M150 104h1M178 104h1M1 105h1M150 105h1M178 105h1M1 106h1M150 106h1M178 106h1M1 107h1M150 107h1M178 107h1M1 108h1M150 108h1M178 108h1M1 109h1M150 109h1M178 109h1M1 110h1M150 110h1M178 110h1M1 111h1M150 111h1M178 111h1M1 112h1M150 112h1M178 112h1M1 113h1M150 113h1M178 113h1M1 114h1M150 114h1M178 114h1M1 115h1M150 115h1M178 115h1M1 116h1M150 116h1M178 116h1M1 117h1M150 117h1M178 117h1M1 118h1M150 118h1M178 118h1M1 119h1M150 119h1M178 119h1M1 120h1M150 120h1M178 120h1M1 121h1M150 121h1M178 121h1M1 122h1M150 122h1M178 122h1M1 123h1M150 123h1M178 123h1M1 124h1M150 124h1M178 124h1M1 125h1M150 125h1M178 125h1M1 126h1M150 126h1M178 126h1M1 127h1M150 127h1M178 127h1M1 128h1M150 128h1M178 128h1M1 129h1M150 129h1M178 129h1M1 130h1M150 130h1M178 130h1M1 131h1M150 131h1M178 131h1M1 132h1M150 132h1M178 132h1M1 133h1M150 133h1M178 133h1M1 134h1M150 134h1M178 134h1M1 135h1M31 135h120M178 135h1M1 136h1M178 136h1M1 137h1M178 137h1M1 138h1M178 138h1M1 139h1M178 139h1M1 140h1M178 140h1M1 141h1M178 141h1M1 142h1M178 142h1M1 143h1M178 143h1M1 144h1M178 144h1M1 145h1M178 145h1M1 146h1M178 146h1M1 147h1M178 147h1M1 148h1M178 148h1M1 149h1M178 149h1M1 150h1M178 150h1M1 151h1M178 151h1M1 152h1M125 152h1M178 152h1M1 153h1M125 153h1M178 153h1M1 154h1M126 154h1M178 154h1M1 155h1M126 155h1M178 155h1M1 156h1M126 156h1M178 156h1M1 157h1M126 157h1M178 157h1M1 158h1M126 158h1M178 158h1M1 159h1M126 159h1M178 159h1M1 160h1M126 160h1M178 160h1M1 161h1M126 161h1M178 161h1M1 162h1M125 162h1M178 162h1M1 163h1M125 163h1M178 163h1M1 164h1M124 164h1M178 164h1M1 165h1M56 165h2M122 165h2M178 165h1M1 166h1M58 166h64M178 166h1M1 167h1M178 167h1M1 168h1M178 168h1M1 169h1M178 169h1M1 170h1M178 170h1M1 171h1M178 171h1M1 172h1M178 172h1M1 173h1M178 173h1M1 174h1M178 174h1M1 175h1M178 175h1M1 176h1M178 176h1M1 177h1M178 177h1M1 178h1M178 178h1M1 179h1M178 179h1M1 180h1M178 180h1M1 181h1M178 181h1M1 182h1M138 182h1M178 182h1M1 183h1M138 183h1M178 183h1M1 184h1M139 184h1M178 184h1M1 185h1M139 185h1M178 185h1M1 186h1M140 186h1M178 186h1M1 187h1M140 187h1M178 187h1M1 188h1M140 188h1M178 188h1M1 189h1M140 189h1M178 189h1M1 190h1M140 190h1M178 190h1M1 191h1M140 191h1M178 191h1M1 192h1M72 192h1M139 192h1M178 192h1M1 193h1M72 193h1M139 193h1M178 193h1M1 194h1M73 194h1M138 194h1M178 194h1M1 195h1M73 195h1M138 195h1M178 195h1M1 196h1M73 196h1M137 196h1M178 196h1M1 197h1M73 197h1M135 197h2M178 197h1M1 198h1M73 198h1M133 198h2M178 198h1M1 199h1M73 199h1M131 199h2M178 199h1M1 200h1M73 200h1M129 200h2M178 200h1M1 201h1M73 201h1M127 201h2M172 201h1M178 201h1M1 202h1M73 202h1M125 202h2M172 202h1M178 202h1M1 203h1M73 203h1M123 203h2M173 203h1M178 203h1M1 204h1M72 204h1M121 204h2M173 204h1M178 204h1M1 205h1M72 205h1M119 205h2M173 205h1M178 205h1M1 206h1M71 206h1M117 206h2M173 206h1M178 206h1M1 207h1M21 207h2M68 207h3M101 207h2M115 207h2M173 207h1M178 207h1M1 208h1M23 208h11M58 208h10M103 208h2M113 208h2M173 208h1M178 208h1M1 209h1M34 209h1M57 209h1M105 209h8M173 209h1M178 209h1M1 210h1M35 210h1M56 210h1M173 210h1M178 210h1M1 211h1M35 211h1M56 211h1M173 211h1M178 211h1M1 212h1M35 212h1M56 212h1M173 212h1M178 212h1M1 213h1M35 213h1M56 213h1M173 213h1M178 213h1M1 214h1M35 214h1M56 214h1M173 214h1M178 214h1M1 215h1M35 215h1M56 215h1M173 215h1M178 215h1M1 216h1M35 216h1M56 216h1M173 216h1M178 216h1M1 217h1M35 217h1M56 217h1M173 217h1M178 217h1M1 218h1M35 218h1M56 218h1M173 218h1M178 218h1M1 219h1M35 219h1M56 219h1M173 219h1M178 219h1M1 220h1M36 220h1M55 220h1M173 220h1M178 220h1M1 221h1M36 221h1M55 221h1M173 221h1M178 221h1M1 222h1M37 222h1M54 222h1M173 222h1M178 222h1M1 223h1M38 223h2M52 223h2M173 223h1M178 223h1M1 224h1M40 224h12M173 224h1M178 224h1M1 225h1M173 225h1M178 225h1M1 226h1M173 226h1M178 226h1M2 227h1M173 227h1M177 227h1M2 228h1M173 228h1M177 228h1M3 229h1M173 229h1M176 229h1M3 230h1M172 230h1M176 230h1M4 231h1M172 231h1M175 231h1M4 232h1M171 232h1M175 232h1M5 233h1M143 233h2M169 233h2M174 233h1M6 234h2M145 234h24M172 234h2M8 235h2M170 235h2M10 236h160" />
    <path stroke="#9cafb7" d="M10 2h160M8 3h164M6 4h168M5 5h5M74 5h84M170 5h5M4 6h4M10 6h64M76 6h80M158 6h12M172 6h4M4 7h3M8 7h68M77 7h78M156 7h16M173 7h3M3 8h3M7 8h70M78 8h76M155 8h18M174 8h3M3 9h3M7 9h70M78 9h76M155 9h18M174 9h3M2 10h3M6 10h72M79 10h74M154 10h20M175 10h3M2 11h3M6 11h72M79 11h74M154 11h20M175 11h3M2 12h3M6 12h72M79 12h74M154 12h20M175 12h3M2 13h3M6 13h72M79 13h74M154 13h20M175 13h3M2 14h3M6 14h72M79 14h74M154 14h20M175 14h3M2 15h3M6 15h72M79 15h74M154 15h20M175 15h3M2 16h3M6 16h72M79 16h74M154 16h20M175 16h3M2 17h3M6 17h72M79 17h74M154 17h20M175 17h3M2 18h4M7 18h70M78 18h76M155 18h18M174 18h4M2 19h4M7 19h70M78 19h76M155 19h18M174 19h4M2 20h5M8 20h68M77 20h78M156 20h16M173 20h5M2 21h6M10 21h64M76 21h80M158 21h12M172 21h6M2 22h8M74 22h84M170 22h8M2 23h176M2 24h176M2 25h176M2 26h176M2 27h48M131 27h47M2 28h46M50 28h81M133 28h45M2 29h45M48 29h85M134 29h44M2 30h44M47 30h87M135 30h43M2 31h44M47 31h87M135 31h43M2 32h43M46 32h89M136 32h42M2 33h43M46 33h89M136 33h42M2 34h43M46 34h89M136 34h42M2 35h43M46 35h89M136 35h42M2 36h43M46 36h89M136 36h42M2 37h43M46 37h89M136 37h42M2 38h43M46 38h89M136 38h42M2 39h43M46 39h89M136 39h42M2 40h26M153 40h25M2 41h25M28 41h125M154 41h24M2 42h24M27 42h127M155 42h23M2 43h23M26 43h129M156 43h22M2 44h23M26 44h4M151 44h4M156 44h22M2 45h23M26 45h3M152 45h3M156 45h22M2 46h23M26 46h3M31 46h7M143 46h7M152 46h3M156 46h22M2 47h23M26 47h3M31 47h7M143 47h7M152 47h3M156 47h22M2 48h23M26 48h3M31 48h7M143 48h7M152 48h3M156 48h22M2 49h23M26 49h3M31 49h7M143 49h7M152 49h3M156 49h22M2 50h23M26 50h3M31 50h7M143 50h7M152 50h3M156 50h22M2 51h23M26 51h3M31 51h7M143 51h7M152 51h3M156 51h22M2 52h23M26 52h3M31 52h7M143 52h7M152 52h3M156 52h22M2 53h23M26 53h3M31 53h7M143 53h7M152 53h3M156 53h22M2 54h23M26 54h3M31 54h7M143 54h7M152 54h3M156 54h22M2 55h23M26 55h3M31 55h7M143 55h7M152 55h3M156 55h22M2 56h23M26 56h3M31 56h7M143 56h7M152 56h3M156 56h22M2 57h23M26 57h3M31 57h7M143 57h7M152 57h3M156 57h22M2 58h23M26 58h3M31 58h7M143 58h7M152 58h3M156 58h22M2 59h23M26 59h3M31 59h7M143 59h7M152 59h3M156 59h22M2 60h23M26 60h3M31 60h7M143 60h7M152 60h3M156 60h22M2 61h23M26 61h3M31 61h7M143 61h7M152 61h3M156 61h22M2 62h23M26 62h3M31 62h7M143 62h7M152 62h3M156 62h22M2 63h23M26 63h3M31 63h7M143 63h7M152 63h3M156 63h22M2 64h23M26 64h3M31 64h7M143 64h7M152 64h3M156 64h22M2 65h23M26 65h3M31 65h7M143 65h7M152 65h3M156 65h22M2 66h23M26 66h3M31 66h7M143 66h7M152 66h3M156 66h22M2 67h23M26 67h3M31 67h7M143 67h7M152 67h3M156 67h22M2 68h23M26 68h3M31 68h7M143 68h7M152 68h3M156 68h22M2 69h23M26 69h3M31 69h7M143 69h7M152 69h3M156 69h22M2 70h23M26 70h3M31 70h7M143 70h7M152 70h3M156 70h22M2 71h23M26 71h3M31 71h7M143 71h7M152 71h3M156 71h22M2 72h23M26 72h3M31 72h7M143 72h7M152 72h3M156 72h22M2 73h23M26 73h3M31 73h7M143 73h7M152 73h3M156 73h22M2 74h23M26 74h3M31 74h7M143 74h7M152 74h3M156 74h22M2 75h23M26 75h3M31 75h7M143 75h7M152 75h3M156 75h22M2 76h23M26 76h3M31 76h7M143 76h7M152 76h3M156 76h22M2 77h23M26 77h3M31 77h7M143 77h7M152 77h3M156 77h22M2 78h23M26 78h3M31 78h7M143 78h7M152 78h3M156 78h22M2 79h23M26 79h3M31 79h7M143 79h7M152 79h3M156 79h22M2 80h23M26 80h3M31 80h7M143 80h7M152 80h3M156 80h22M2 81h23M26 81h3M31 81h7M143 81h7M152 81h3M156 81h22M2 82h23M26 82h3M31 82h7M143 82h7M152 82h3M156 82h22M2 83h23M26 83h3M31 83h7M143 83h7M152 83h3M156 83h22M2 84h23M26 84h3M31 84h7M143 84h7M152 84h3M156 84h22M2 85h23M26 85h3M31 85h7M143 85h7M152 85h3M156 85h22M2 86h23M26 86h3M31 86h7M143 86h7M152 86h3M156 86h22M2 87h23M26 87h3M31 87h7M143 87h7M152 87h3M156 87h22M2 88h23M26 88h3M31 88h7M143 88h7M152 88h3M156 88h22M2 89h23M26 89h3M31 89h7M143 89h7M152 89h3M156 89h22M2 90h23M26 90h3M31 90h7M143 90h7M152 90h3M156 90h22M2 91h23M26 91h3M31 91h7M143 91h7M152 91h3M156 91h22M2 92h23M26 92h3M31 92h7M143 92h7M152 92h3M156 92h22M2 93h23M26 93h3M31 93h7M143 93h7M152 93h3M156 93h22M2 94h23M26 94h3M31 94h7M143 94h7M152 94h3M156 94h22M2 95h23M26 95h3M31 95h7M143 95h7M152 95h3M156 95h22M2 96h23M26 96h3M31 96h7M143 96h7M152 96h3M156 96h22M2 97h23M26 97h3M31 97h7M143 97h7M152 97h3M156 97h22M2 98h23M26 98h3M31 98h7M143 98h7M152 98h3M156 98h22M2 99h23M26 99h3M31 99h7M143 99h7M152 99h3M156 99h22M2 100h23M26 100h3M31 100h7M143 100h7M152 100h3M156 100h22M2 101h23M26 101h3M31 101h7M143 101h7M152 101h3M156 101h22M2 102h23M26 102h3M31 102h7M143 102h7M152 102h3M156 102h22M2 103h23M26 103h3M31 103h7M143 103h7M152 103h3M156 103h22M2 104h23M26 104h3M31 104h7M143 104h7M152 104h3M156 104h22M2 105h23M26 105h3M31 105h7M143 105h7M152 105h3M156 105h22M2 106h23M26 106h3M31 106h7M143 106h7M152 106h3M156 106h22M2 107h23M26 107h3M31 107h7M143 107h7M152 107h3M156 107h22M2 108h23M26 108h3M31 108h7M143 108h7M152 108h3M156 108h22M2 109h23M26 109h3M31 109h7M143 109h7M152 109h3M156 109h22M2 110h23M26 110h3M31 110h7M143 110h7M152 110h3M156 110h22M2 111h23M26 111h3M31 111h7M143 111h7M152 111h3M156 111h22M2 112h23M26 112h3M31 112h7M143 112h7M152 112h3M156 112h22M2 113h23M26 113h3M31 113h7M143 113h7M152 113h3M156 113h22M2 114h23M26 114h3M31 114h7M143 114h7M152 114h3M156 114h22M2 115h23M26 115h3M31 115h7M143 115h7M152 115h3M156 115h22M2 116h23M26 116h3M31 116h7M143 116h7M152 116h3M156 116h22M2 117h23M26 117h3M31 117h7M143 117h7M152 117h3M156 117h22M2 118h23M26 118h3M31 118h7M143 118h7M152 118h3M156 118h22M2 119h23M26 119h3M31 119h7M143 119h7M152 119h3M156 119h22M2 120h23M26 120h3M31 120h7M143 120h7M152 120h3M156 120h22M2 121h23M26 121h3M31 121h7M143 121h7M152 121h3M156 121h22M2 122h23M26 122h3M31 122h7M143 122h7M152 122h3M156 122h22M2 123h23M26 123h3M31 123h7M143 123h7M152 123h3M156 123h22M2 124h23M26 124h3M31 124h7M143 124h7M152 124h3M156 124h22M2 125h23M26 125h3M31 125h7M143 125h7M152 125h3M156 125h22M2 126h23M26 126h3M31 126h7M143 126h7M152 126h3M156 126h22M2 127h23M26 127h3M31 127h7M143 127h7M152 127h3M156 127h22M2 128h23M26 128h3M31 128h7M143 128h7M152 128h3M156 128h22M2 129h23M26 129h3M31 129h7M143 129h7M152 129h3M156 129h22M2 130h23M26 130h3M31 130h7M143 130h7M152 130h3M156 130h22M2 131h23M26 131h3M31 131h7M143 131h7M152 131h3M156 131h22M2 132h23M26 132h3M31 132h7M143 132h7M152 132h3M156 132h22M2 133h23M26 133h3M31 133h7M143 133h7M152 133h3M156 133h22M2 134h23M26 134h3M31 134h7M143 134h7M152 134h3M156 134h22M2 135h23M26 135h3M152 135h3M156 135h22M2 136h23M26 136h4M151 136h4M156 136h22M2 137h23M26 137h129M156 137h22M2 138h24M27 138h127M155 138h23M2 139h25M28 139h125M154 139h24M2 140h26M153 140h25M2 141h176M2 142h176M2 143h176M2 144h176M2 145h176M2 146h176M2 147h176M2 148h176M2 149h56M122 149h56M2 150h54M58 150h64M124 150h54M2 151h53M56 151h68M125 151h53M2 152h52M55 152h70M126 152h52M2 153h52M55 153h70M126 153h52M2 154h51M54 154h72M127 154h51M2 155h51M54 155h72M127 155h51M2 156h51M54 156h72M127 156h51M2 157h51M54 157h72M127 157h51M2 158h51M54 158h72M127 158h51M2 159h51M54 159h72M127 159h51M2 160h51M54 160h72M127 160h51M2 161h51M54 161h72M127 161h51M2 162h52M55 162h70M126 162h52M2 163h52M55 163h70M126 163h52M2 164h53M56 164h68M125 164h53M2 165h54M58 165h64M124 165h54M2 166h56M122 166h56M2 167h176M2 168h176M2 169h176M2 170h176M2 171h176M2 172h176M2 173h38M52 173h126M2 174h36M40 174h12M54 174h124M2 175h35M38 175h16M55 175h123M2 176h34M37 176h18M56 176h122M2 177h34M37 177h18M56 177h122M2 178h33M36 178h20M57 178h68M133 178h45M2 179h33M36 179h20M57 179h66M125 179h8M135 179h43M2 180h33M36 180h20M57 180h64M123 180h12M137 180h41M2 181h33M36 181h20M57 181h62M121 181h16M138 181h40M2 182h33M36 182h20M57 182h60M119 182h19M139 182h39M2 183h33M36 183h20M57 183h58M117 183h21M139 183h39M2 184h33M36 184h20M57 184h56M115 184h24M140 184h38M2 185h33M36 185h20M57 185h54M113 185h26M140 185h38M2 186h33M36 186h20M57 186h52M111 186h29M141 186h37M2 187h33M36 187h20M57 187h50M109 187h31M141 187h37M2 188h32M35 188h22M58 188h47M107 188h33M141 188h37M2 189h21M34 189h24M69 189h34M105 189h35M141 189h37M2 190h19M23 190h46M71 190h30M103 190h37M141 190h37M2 191h18M21 191h50M72 191h28M101 191h39M141 191h37M2 192h17M20 192h52M73 192h26M100 192h39M140 192h38M2 193h17M20 193h52M73 193h26M100 193h39M140 193h38M2 194h16M19 194h54M74 194h24M99 194h39M139 194h39M2 195h16M19 195h54M74 195h24M99 195h39M139 195h39M2 196h16M19 196h54M74 196h23M98 196h39M138 196h40M2 197h16M19 197h54M74 197h23M98 197h37M137 197h41M2 198h16M19 198h54M74 198h23M98 198h35M135 198h10M169 198h9M2 199h16M19 199h54M74 199h23M98 199h33M133 199h10M145 199h24M171 199h7M2 200h16M19 200h54M74 200h23M98 200h31M131 200h11M143 200h7M154 200h17M172 200h6M2 201h16M19 201h54M74 201h23M98 201h29M129 201h12M142 201h7M152 201h1M155 201h17M173 201h5M2 202h16M19 202h54M74 202h24M99 202h26M127 202h14M142 202h6M156 202h16M173 202h5M2 203h16M19 203h54M74 203h24M99 203h24M125 203h15M141 203h7M156 203h7M166 203h7M174 203h4M2 204h17M20 204h52M73 204h26M100 204h21M123 204h17M141 204h7M150 204h5M160 204h2M167 204h6M174 204h4M2 205h17M20 205h52M73 205h26M100 205h19M121 205h19M141 205h5M151 205h9M162 205h1M167 205h6M174 205h4M2 206h18M21 206h50M72 206h28M101 206h16M119 206h21M141 206h4M147 206h3M152 206h12M167 206h6M174 206h4M2 207h19M23 207h45M71 207h30M103 207h12M117 207h23M141 207h4M146 207h7M154 207h12M167 207h6M174 207h4M2 208h21M34 208h24M68 208h35M105 208h8M115 208h25M141 208h3M146 208h13M161 208h2M167 208h6M174 208h4M2 209h32M35 209h22M58 209h47M113 209h27M141 209h2M145 209h13M167 209h6M174 209h4M2 210h33M36 210h20M57 210h83M141 210h2M144 210h10M162 210h1M165 210h1M167 210h6M174 210h4M2 211h33M36 211h20M57 211h83M141 211h2M144 211h9M154 211h6M161 211h5M168 211h5M174 211h4M2 212h33M36 212h20M57 212h83M141 212h1M144 212h8M153 212h1M159 212h2M162 212h1M166 212h1M168 212h5M174 212h4M2 213h33M36 213h20M57 213h83M141 213h1M144 213h6M158 213h1M160 213h2M163 213h3M169 213h4M174 213h4M2 214h33M36 214h20M57 214h83M141 214h1M144 214h2M154 214h6M164 214h2M169 214h4M174 214h4M2 215h33M36 215h20M57 215h83M141 215h2M146 215h1M170 215h3M174 215h4M2 216h33M36 216h20M57 216h83M141 216h4M147 216h2M156 216h2M170 216h3M174 216h4M2 217h33M36 217h20M57 217h83M141 217h5M148 217h3M157 217h2M169 217h4M174 217h4M2 218h33M36 218h20M57 218h83M141 218h6M150 218h9M168 218h5M174 218h4M2 219h33M36 219h20M57 219h83M141 219h7M152 219h6M168 219h5M174 219h4M2 220h34M37 220h18M56 220h84M141 220h8M153 220h3M168 220h5M174 220h4M2 221h34M37 221h18M56 221h84M141 221h10M168 221h2M172 221h1M174 221h4M2 222h35M38 222h16M55 222h85M141 222h5M150 222h3M170 222h1M172 222h1M174 222h4M2 223h36M40 223h12M54 223h86M141 223h4M151 223h5M157 223h1M162 223h1M167 223h1M170 223h1M172 223h1M174 223h4M2 224h38M52 224h88M141 224h3M152 224h2M155 224h1M160 224h1M162 224h1M165 224h1M167 224h1M170 224h1M172 224h1M174 224h4M2 225h138M141 225h2M149 225h1M153 225h1M155 225h2M158 225h3M162 225h1M165 225h1M167 225h2M172 225h1M174 225h4M2 226h138M141 226h2M147 226h3M153 226h1M158 226h3M162 226h2M165 226h1M167 226h6M174 226h4M3 227h137M141 227h2M147 227h3M153 227h5M159 227h1M162 227h1M165 227h1M167 227h3M171 227h2M174 227h3M3 228h137M141 228h2M149 228h1M153 228h5M162 228h2M165 228h1M170 228h3M174 228h3M4 229h136M141 229h3M152 229h7M161 229h3M165 229h8M174 229h2M4 230h137M142 230h3M151 230h8M160 230h3M165 230h1M169 230h3M173 230h3M5 231h136M142 231h4M150 231h10M165 231h2M168 231h4M173 231h2M5 232h137M143 232h28M172 232h3M6 233h137M145 233h24M171 233h3M8 234h137M169 234h3M10 235h160" />
    <path stroke="#12252d" d="M10 5h64M158 5h12M8 6h2M74 6h2M156 6h2M170 6h2M7 7h1M76 7h1M155 7h1M172 7h1M6 8h1M154 8h1M6 9h1M154 9h1M5 10h1M153 10h1M5 11h1M153 11h1M5 12h1M153 12h1M5 13h1M153 13h1M5 14h1M153 14h1M5 15h1M153 15h1M5 16h1M153 16h1M5 17h1M153 17h1M6 18h1M154 18h1M6 19h1M154 19h1M7 20h1M155 20h1M38 46h8M135 46h8M38 47h8M135 47h8M38 48h8M135 48h8M38 49h8M135 49h8M38 50h8M135 50h8M38 51h8M135 51h8M38 52h8M135 52h8M38 53h8M135 53h8M38 54h8M135 54h8M38 55h8M135 55h8M38 56h8M135 56h8M38 57h8M135 57h8M38 58h8M135 58h8M38 59h8M135 59h8M38 60h8M135 60h8M38 61h8M135 61h8M38 62h8M135 62h8M38 63h8M135 63h8M38 64h8M135 64h8M38 65h8M135 65h8M38 66h8M135 66h8M38 67h8M135 67h8M38 68h8M135 68h8M38 69h8M135 69h8M38 70h8M135 70h8M38 71h8M135 71h8M38 72h8M135 72h8M38 73h8M135 73h8M38 74h8M135 74h8M38 75h8M135 75h8M38 76h8M135 76h8M38 77h8M135 77h8M38 78h8M135 78h8M38 79h8M135 79h8M38 80h8M135 80h8M38 81h8M135 81h8M38 82h8M135 82h8M38 83h8M135 83h8M38 84h8M135 84h8M38 85h8M135 85h8M38 86h8M135 86h8M38 87h8M135 87h8M38 88h8M135 88h8M38 89h8M135 89h8M38 90h8M135 90h8M38 91h8M135 91h8M38 92h8M135 92h8M38 93h8M135 93h8M38 94h8M135 94h8M38 95h8M135 95h8M38 96h8M135 96h8M38 97h8M135 97h8M38 98h8M135 98h8M38 99h8M135 99h8M38 100h8M135 100h8M38 101h8M135 101h8M38 102h8M135 102h8M38 103h8M135 103h8M38 104h8M135 104h8M38 105h8M135 105h8M38 106h8M135 106h8M38 107h8M135 107h8M38 108h8M135 108h8M38 109h8M135 109h8M38 110h8M135 110h8M38 111h8M135 111h8M38 112h8M135 112h8M38 113h8M135 113h8M38 114h8M135 114h8M38 115h8M135 115h8M38 116h8M135 116h8M38 117h8M135 117h8M38 118h8M135 118h8M38 119h8M135 119h8M38 120h8M135 120h8M38 121h8M135 121h8M38 122h8M135 122h8M38 123h8M135 123h8M38 124h8M135 124h8M38 125h8M135 125h8M38 126h8M135 126h8M38 127h8M135 127h8M38 128h8M135 128h8M38 129h8M135 129h8M38 130h8M135 130h8M38 131h8M135 131h8M38 132h8M135 132h8M38 133h8M135 133h8M38 134h8M135 134h8M58 149h64M56 150h2M122 150h2M55 151h1M124 151h1M54 152h1M54 153h1M53 154h1M53 155h1M53 156h1M53 157h1M53 158h1M53 159h1M53 160h1M53 161h1M54 162h1M54 163h1M55 164h1M40 173h12M38 174h2M52 174h2M37 175h1M54 175h1M36 176h1M55 176h1M36 177h1M55 177h1M35 178h1M56 178h1M125 178h8M35 179h1M56 179h1M123 179h2M133 179h2M35 180h1M56 180h1M121 180h2M135 180h2M35 181h1M56 181h1M119 181h2M137 181h1M35 182h1M56 182h1M117 182h2M35 183h1M56 183h1M115 183h2M35 184h1M56 184h1M113 184h2M35 185h1M56 185h1M111 185h2M35 186h1M56 186h1M109 186h2M35 187h1M56 187h1M107 187h2M34 188h1M57 188h1M105 188h2M23 189h11M58 189h11M103 189h2M21 190h2M69 190h2M101 190h2M20 191h1M71 191h1M100 191h1M19 192h1M99 192h1M19 193h1M99 193h1M18 194h1M98 194h1M18 195h1M98 195h1M18 196h1M97 196h1M18 197h1M97 197h1M18 198h1M97 198h1M145 198h24M18 199h1M97 199h1M143 199h2M169 199h2M18 200h1M97 200h1M142 200h1M171 200h1M18 201h1M97 201h1M141 201h1M18 202h1M98 202h1M141 202h1M18 203h1M98 203h1M140 203h1M19 204h1M99 204h1M140 204h1M19 205h1M99 205h1M140 205h1M20 206h1M100 206h1M140 206h1M140 207h1M140 208h1M140 209h1M140 210h1M140 211h1M140 212h1M140 213h1M140 214h1M140 215h1M140 216h1M140 217h1M140 218h1M140 219h1M140 220h1M140 221h1M140 222h1M140 223h1M140 224h1M140 225h1M140 226h1M1 227h1M140 227h1M178 227h1M1 228h1M140 228h1M178 228h1M1 229h2M140 229h1M177 229h2M2 230h1M141 230h1M177 230h1M2 231h2M141 231h1M176 231h2M3 232h1M142 232h1M176 232h1M3 233h2M175 233h2M4 234h2M174 234h2M5 235h3M172 235h3M6 236h4M170 236h4M8 237h164M10 238h160" />
    <path stroke="#82959d" d="M50 27h81M48 28h2M131 28h2M47 29h1M133 29h1M46 30h1M134 30h1M46 31h1M134 31h1M45 32h1M135 32h1M45 33h1M135 33h1M45 34h1M135 34h1M45 35h1M135 35h1M45 36h1M135 36h1M45 37h1M135 37h1M45 38h1M135 38h1M45 39h1M135 39h1M28 40h125M27 41h1M153 41h1M26 42h1M25 43h1M25 44h1M25 45h1M151 45h1M25 46h1M151 46h1M25 47h1M151 47h1M25 48h1M151 48h1M25 49h1M151 49h1M25 50h1M151 50h1M25 51h1M151 51h1M25 52h1M151 52h1M25 53h1M151 53h1M25 54h1M151 54h1M25 55h1M151 55h1M25 56h1M151 56h1M25 57h1M151 57h1M25 58h1M151 58h1M25 59h1M151 59h1M25 60h1M151 60h1M25 61h1M151 61h1M25 62h1M151 62h1M25 63h1M151 63h1M25 64h1M151 64h1M25 65h1M151 65h1M25 66h1M151 66h1M25 67h1M151 67h1M25 68h1M151 68h1M25 69h1M151 69h1M25 70h1M151 70h1M25 71h1M151 71h1M25 72h1M151 72h1M25 73h1M151 73h1M25 74h1M151 74h1M25 75h1M151 75h1M25 76h1M151 76h1M25 77h1M151 77h1M25 78h1M151 78h1M25 79h1M151 79h1M25 80h1M151 80h1M25 81h1M151 81h1M25 82h1M151 82h1M25 83h1M151 83h1M25 84h1M151 84h1M25 85h1M151 85h1M25 86h1M151 86h1M25 87h1M151 87h1M25 88h1M151 88h1M25 89h1M151 89h1M25 90h1M151 90h1M25 91h1M151 91h1M25 92h1M151 92h1M25 93h1M151 93h1M25 94h1M151 94h1M25 95h1M151 95h1M25 96h1M151 96h1M25 97h1M151 97h1M25 98h1M151 98h1M25 99h1M151 99h1M25 100h1M151 100h1M25 101h1M151 101h1M25 102h1M151 102h1M25 103h1M151 103h1M25 104h1M151 104h1M25 105h1M151 105h1M25 106h1M151 106h1M25 107h1M151 107h1M25 108h1M151 108h1M25 109h1M151 109h1M25 110h1M151 110h1M25 111h1M151 111h1M25 112h1M151 112h1M25 113h1M151 113h1M25 114h1M151 114h1M25 115h1M151 115h1M25 116h1M151 116h1M25 117h1M151 117h1M25 118h1M151 118h1M25 119h1M151 119h1M25 120h1M151 120h1M25 121h1M151 121h1M25 122h1M151 122h1M25 123h1M151 123h1M25 124h1M151 124h1M25 125h1M151 125h1M25 126h1M151 126h1M25 127h1M151 127h1M25 128h1M151 128h1M25 129h1M151 129h1M25 130h1M151 130h1M25 131h1M151 131h1M25 132h1M151 132h1M25 133h1M151 133h1M25 134h1M151 134h1M25 135h1M151 135h1M25 136h1M30 136h121M25 137h1" />
    <path stroke="#2e4149" d="M154 42h1M155 43h1M30 44h121M155 44h1M29 45h2M150 45h1M155 45h1M29 46h1M155 46h1M29 47h1M155 47h1M29 48h1M155 48h1M29 49h1M155 49h1M29 50h1M155 50h1M29 51h1M155 51h1M29 52h1M155 52h1M29 53h1M155 53h1M29 54h1M155 54h1M29 55h1M155 55h1M29 56h1M155 56h1M29 57h1M155 57h1M29 58h1M155 58h1M29 59h1M155 59h1M29 60h1M155 60h1M29 61h1M155 61h1M29 62h1M155 62h1M29 63h1M155 63h1M29 64h1M155 64h1M29 65h1M155 65h1M29 66h1M155 66h1M29 67h1M155 67h1M29 68h1M155 68h1M29 69h1M155 69h1M29 70h1M155 70h1M29 71h1M155 71h1M29 72h1M155 72h1M29 73h1M155 73h1M29 74h1M155 74h1M29 75h1M155 75h1M29 76h1M155 76h1M29 77h1M155 77h1M29 78h1M155 78h1M29 79h1M155 79h1M29 80h1M155 80h1M29 81h1M155 81h1M29 82h1M155 82h1M29 83h1M155 83h1M29 84h1M155 84h1M29 85h1M155 85h1M29 86h1M155 86h1M29 87h1M155 87h1M29 88h1M155 88h1M29 89h1M155 89h1M29 90h1M155 90h1M29 91h1M155 91h1M29 92h1M155 92h1M29 93h1M155 93h1M29 94h1M155 94h1M29 95h1M155 95h1M29 96h1M155 96h1M29 97h1M155 97h1M29 98h1M155 98h1M29 99h1M155 99h1M29 100h1M155 100h1M29 101h1M155 101h1M29 102h1M155 102h1M29 103h1M155 103h1M29 104h1M155 104h1M29 105h1M155 105h1M29 106h1M155 106h1M29 107h1M155 107h1M29 108h1M155 108h1M29 109h1M155 109h1M29 110h1M155 110h1M29 111h1M155 111h1M29 112h1M155 112h1M29 113h1M155 113h1M29 114h1M155 114h1M29 115h1M155 115h1M29 116h1M155 116h1M29 117h1M155 117h1M29 118h1M155 118h1M29 119h1M155 119h1M29 120h1M155 120h1M29 121h1M155 121h1M29 122h1M155 122h1M29 123h1M155 123h1M29 124h1M155 124h1M29 125h1M155 125h1M29 126h1M155 126h1M29 127h1M155 127h1M29 128h1M155 128h1M29 129h1M155 129h1M29 130h1M155 130h1M29 131h1M155 131h1M29 132h1M155 132h1M29 133h1M155 133h1M29 134h1M155 134h1M29 135h2M155 135h1M155 136h1M155 137h1M26 138h1M154 138h1M27 139h1M153 139h1M28 140h125" />
    <path stroke="#6aa6a2" d="M46 46h89M46 47h89M46 48h89M46 49h89M46 50h89M46 51h89M46 52h89M46 53h89M46 54h89M46 55h89M46 56h89M46 57h89M46 58h89M46 59h89M46 60h89M46 61h89M46 62h89M46 63h89M46 64h89M46 65h89M46 66h89M46 67h89M46 68h89M46 69h89M46 70h89M46 71h89M46 72h89M46 73h89M46 74h47M104 74h29M46 75h43M108 75h22M46 76h42M111 76h18M46 77h41M113 77h15M46 78h39M113 78h13M46 79h11M61 79h23M115 79h9M46 80h8M64 80h18M118 80h4M46 81h7M67 81h15M46 82h4M68 82h11M70 83h8" />
    <path stroke="#75a07f" d="M93 74h11M89 75h19M88 76h23M87 77h26M85 78h28M84 79h31M82 80h36M82 81h38M79 82h43M78 83h46M66 84h61M46 85h6M62 85h71M46 86h89M46 87h89M46 88h89M46 89h89M46 90h89M46 91h89" />
    <path stroke="#6a8185" d="M133 74h2M130 75h5M129 76h6M128 77h7M126 78h9M57 79h4M124 79h11M54 80h10M122 80h13M53 81h14M120 81h15M50 82h18M122 82h13M46 83h24M124 83h11M46 84h20M127 84h8M52 85h10M133 85h2" />
    <path stroke="#83ab85" d="M46 92h89M46 93h89M46 94h89M46 95h89M46 96h89M46 97h89M46 98h89M46 99h89M46 100h89M46 101h89M46 102h89M46 103h89M46 104h89M46 105h89M46 106h89M46 107h89M46 108h89M46 109h89M46 110h89M46 111h89M46 112h89M46 113h89M46 114h89M46 115h89M46 116h89M46 117h89M46 118h89M46 119h89M46 120h89M46 121h89M46 122h89M46 123h89M46 124h89M46 125h89M46 126h89M46 127h89M46 128h89M46 129h89M46 130h89M46 131h89M46 132h89M46 133h89M46 134h89" />
    <path stroke="#72858d" d="M150 201h2M149 202h1M153 202h1M149 203h1M151 203h3M163 204h2M149 205h2M165 205h1M150 206h2M164 206h1M153 207h1M163 208h1M158 209h2M161 209h3M160 210h2M163 210h2M143 213h1M154 213h4M150 214h1M152 214h2M146 216h1M168 216h1M151 217h4M166 217h1M149 218h1M162 218h1M164 218h1M166 218h1M150 219h2M158 219h1M162 219h1M164 219h1M152 220h1M156 220h3M160 220h1M162 220h1M166 220h1M154 221h3M160 221h1M164 221h1M166 221h1M171 221h1M146 222h4M162 222h1M164 222h1M166 222h2M171 222h1M145 223h1M150 223h1M158 223h1M160 223h1M164 223h2M168 223h2M171 223h1M144 224h1M146 224h4M151 224h1M154 224h1M156 224h1M159 224h1M163 224h1M169 224h1M143 225h1M145 225h2M150 225h1M152 225h1M157 225h1M163 225h1M171 225h1M143 226h1M145 226h1M150 226h1M152 226h1M154 226h1M157 226h1M143 227h1M145 227h1M150 227h1M152 227h1M160 227h1M163 227h1M170 227h1M143 228h1M145 228h2M150 228h1M152 228h1M159 228h2M166 228h1M169 228h1M144 229h1M146 229h4M151 229h1M145 230h1M150 230h1M159 230h1M163 230h1M167 230h1M146 231h4M160 231h1M164 231h1" />
    <path stroke="#22353d" d="M153 201h1M150 202h1M154 202h1M154 203h1M149 204h1M165 204h1M148 205h1M163 205h1M146 206h1M166 206h1M145 208h1M159 208h2M164 208h2M144 209h1M165 209h2M166 211h1M143 212h1M154 212h5M152 213h2M159 213h1M167 213h1M143 214h1M151 214h1M167 214h1M145 215h1M147 215h3M160 215h1M162 215h2M166 215h1M168 215h1M149 216h7M159 216h2M162 216h1M164 216h1M166 216h1M147 217h1M155 217h2M160 217h1M162 217h1M164 217h1M148 218h1M160 218h1M149 219h1M160 219h1M151 220h1M153 221h1M157 221h2" />
</svg>