<svg xmlns="http://www.w3.org/2000/svg" viewBox="0 -0.5 180 240" shape-rendering="crispEdges">
    <path stroke="#1f1f1f" d="M10 0h160M8 1h2M170 1h2M6 2h2M172 2h2M5 3h1M174 3h1M4 4h1M175 4h1M3 5h1M176 5h1M2 6h1M177 6h1M2 7h1M177 7h1M1 8h1M178 8h1M1 9h1M178 9h1M0 10h1M179 10h1M0 11h1M179 11h1M0 12h1M179 12h1M0 13h1M179 13h1M0 14h1M179 14h1M0 15h1M179 15h1M0 16h1M179 16h1M0 17h1M179 17h1M0 18h1M179 18h1M0 19h1M179 19h1M0 20h1M179 20h1M0 21h1M179 21h1M0 22h1M179 22h1M0 23h1M179 23h1M0 24h1M179 24h1M0 25h1M179 25h1M0 26h1M179 26h1M0 27h1M179 27h1M0 28h1M179 28h1M0 29h1M179 29h1M0 30h1M179 30h1M0 31h1M179 31h1M0 32h1M179 32h1M0 33h1M179 33h1M0 34h1M179 34h1M0 35h1M179 35h1M0 36h1M179 36h1M0 37h1M179 37h1M0 38h1M179 38h1M0 39h1M179 39h1M0 40h1M179 40h1M0 41h1M179 41h1M0 42h1M139 42h1M179 42h1M0 43h1M140 43h1M179 43h1M0 44h1M45 44h91M140 44h1M179 44h1M0 45h1M44 45h91M140 45h1M179 45h1M0 46h1M44 46h2M140 46h1M179 46h1M0 47h1M44 47h2M140 47h1M179 47h1M0 48h1M44 48h2M140 48h1M179 48h1M0 49h1M44 49h2M140 49h1M179 49h1M0 50h1M44 50h2M140 50h1M179 50h1M0 51h1M44 51h2M140 51h1M179 51h1M0 52h1M44 52h2M140 52h1M179 52h1M0 53h1M44 53h2M140 53h1M179 53h1M0 54h1M44 54h2M140 54h1M179 54h1M0 55h1M44 55h2M140 55h1M179 55h1M0 56h1M44 56h2M140 56h1M179 56h1M0 57h1M44 57h2M140 57h1M179 57h1M0 58h1M44 58h2M140 58h1M179 58h1M0 59h1M44 59h2M140 59h1M179 59h1M0 60h1M44 60h2M140 60h1M179 60h1M0 61h1M44 61h2M140 61h1M179 61h1M0 62h1M44 62h2M140 62h1M179 62h1M0 63h1M44 63h2M140 63h1M179 63h1M0 64h1M44 64h2M140 64h1M179 64h1M0 65h1M44 65h2M140 65h1M179 65h1M0 66h1M44 66h2M140 66h1M179 66h1M0 67h1M44 67h2M140 67h1M179 67h1M0 68h1M44 68h2M140 68h1M179 68h1M0 69h1M44 69h2M140 69h1M179 69h1M0 70h1M44 70h2M140 70h1M179 70h1M0 71h1M44 71h2M140 71h1M179 71h1M0 72h1M44 72h2M140 72h1M179 72h1M0 73h1M44 73h2M140 73h1M179 73h1M0 74h1M44 74h2M140 74h1M179 74h1M0 75h1M44 75h2M140 75h1M179 75h1M0 76h1M44 76h2M140 76h1M179 76h1M0 77h1M44 77h2M140 77h1M179 77h1M0 78h1M44 78h2M140 78h1M179 78h1M0 79h1M44 79h2M140 79h1M179 79h1M0 80h1M44 80h2M140 80h1M179 80h1M0 81h1M44 81h2M140 81h1M179 81h1M0 82h1M44 82h2M140 82h1M179 82h1M0 83h1M44 83h2M140 83h1M179 83h1M0 84h1M44 84h2M140 84h1M179 84h1M0 85h1M44 85h2M140 85h1M179 85h1M0 86h1M44 86h2M140 86h1M179 86h1M0 87h1M44 87h2M140 87h1M179 87h1M0 88h1M44 88h2M140 88h1M179 88h1M0 89h1M44 89h2M140 89h1M179 89h1M0 90h1M44 90h2M140 90h1M179 90h1M0 91h1M44 91h2M140 91h1M179 91h1M0 92h1M44 92h2M140 92h1M179 92h1M0 93h1M44 93h2M140 93h1M179 93h1M0 94h1M44 94h2M140 94h1M179 94h1M0 95h1M44 95h2M140 95h1M179 95h1M0 96h1M44 96h2M140 96h1M179 96h1M0 97h1M44 97h2M140 97h1M179 97h1M0 98h1M44 98h2M140 98h1M179 98h1M0 99h1M44 99h2M140 99h1M179 99h1M0 100h1M44 100h2M140 100h1M179 100h1M0 101h1M44 101h2M140 101h1M179 101h1M0 102h1M44 102h2M140 102h1M179 102h1M0 103h1M44 103h2M140 103h1M179 103h1M0 104h1M44 104h2M140 104h1M179 104h1M0 105h1M44 105h2M140 105h1M179 105h1M0 106h1M44 106h2M140 106h1M179 106h1M0 107h1M44 107h2M140 107h1M179 107h1M0 108h1M44 108h2M140 108h1M179 108h1M0 109h1M44 109h2M140 109h1M179 109h1M0 110h1M44 110h2M140 110h1M179 110h1M0 111h1M44 111h2M140 111h1M179 111h1M0 112h1M44 112h2M140 112h1M179 112h1M0 113h1M44 113h2M140 113h1M179 113h1M0 114h1M44 114h2M140 114h1M179 114h1M0 115h1M44 115h2M140 115h1M179 115h1M0 116h1M44 116h2M140 116h1M179 116h1M0 117h1M44 117h2M140 117h1M179 117h1M0 118h1M44 118h2M140 118h1M179 118h1M0 119h1M44 119h2M140 119h1M179 119h1M0 120h1M44 120h2M140 120h1M179 120h1M0 121h1M44 121h2M140 121h1M179 121h1M0 122h1M44 122h2M140 122h1M179 122h1M0 123h1M44 123h2M140 123h1M179 123h1M0 124h1M44 124h2M140 124h1M179 124h1M0 125h1M44 125h2M140 125h1M179 125h1M0 126h1M44 126h2M140 126h1M179 126h1M0 127h1M44 127h2M140 127h1M179 127h1M0 128h1M44 128h2M140 128h1M179 128h1M0 129h1M44 129h2M140 129h1M179 129h1M0 130h1M44 130h2M140 130h1M179 130h1M0 131h1M44 131h2M140 131h1M179 131h1M0 132h1M44 132h2M140 132h1M179 132h1M0 133h1M44 133h2M140 133h1M179 133h1M0 134h1M44 134h2M140 134h1M179 134h1M0 135h1M44 135h1M140 135h1M179 135h1M0 136h1M140 136h1M179 136h1M0 137h1M140 137h1M179 137h1M0 138h1M41 138h1M139 138h1M179 138h1M0 139h1M42 139h1M138 139h1M179 139h1M0 140h1M43 140h95M179 140h1M0 141h1M179 141h1M0 142h1M179 142h1M0 143h1M179 143h1M0 144h1M179 144h1M0 145h1M179 145h1M0 146h1M179 146h1M0 147h1M179 147h1M0 148h1M179 148h1M0 149h1M179 149h1M0 150h1M179 150h1M0 151h1M179 151h1M0 152h1M179 152h1M0 153h1M179 153h1M0 154h1M179 154h1M0 155h1M179 155h1M0 156h1M179 156h1M0 157h1M179 157h1M0 158h1M179 158h1M0 159h1M179 159h1M0 160h1M179 160h1M0 161h1M179 161h1M0 162h1M179 162h1M0 163h1M179 163h1M0 164h1M179 164h1M0 165h1M179 165h1M0 166h1M179 166h1M0 167h1M179 167h1M0 168h1M179 168h1M0 169h1M179 169h1M0 170h1M179 170h1M0 171h1M179 171h1M0 172h1M179 172h1M0 173h1M179 173h1M0 174h1M179 174h1M0 175h1M179 175h1M0 176h1M179 176h1M0 177h1M179 177h1M0 178h1M179 178h1M0 179h1M179 179h1M0 180h1M179 180h1M0 181h1M179 181h1M0 182h1M179 182h1M0 183h1M179 183h1M0 184h1M179 184h1M0 185h1M179 185h1M0 186h1M179 186h1M0 187h1M179 187h1M0 188h1M179 188h1M0 189h1M179 189h1M0 190h1M179 190h1M0 191h1M179 191h1M0 192h1M179 192h1M0 193h1M179 193h1M0 194h1M179 194h1M0 195h1M179 195h1M0 196h1M179 196h1M0 197h1M179 197h1M0 198h1M179 198h1M0 199h1M179 199h1M0 200h1M179 200h1M0 201h1M179 201h1M0 202h1M179 202h1M0 203h1M179 203h1M0 204h1M179 204h1M0 205h1M179 205h1M0 206h1M179 206h1M0 207h1M179 207h1M0 208h1M179 208h1M0 209h1M179 209h1M0 210h1M179 210h1M0 211h1M179 211h1M0 212h1M179 212h1M0 213h1M179 213h1M0 214h1M179 214h1M0 215h1M179 215h1M0 216h1M179 216h1M0 217h1M179 217h1M0 218h1M179 218h1M0 219h1M179 219h1M0 220h1M179 220h1M0 221h1M179 221h1M0 222h1M179 222h1M0 223h1M179 223h1M0 224h1M179 224h1M0 225h1M179 225h1M0 226h1M179 226h1M0 227h1M179 227h1M0 228h1M179 228h1M0 229h1M179 229h1M1 230h1M178 230h1M1 231h1M178 231h1M2 232h1M177 232h1M2 233h1M177 233h1M3 234h1M176 234h1M4 235h1M175 235h1M5 236h1M174 236h1M6 237h2M172 237h2M8 238h2M170 238h2M10 239h160" />
    <path stroke="#c4c4c4" d="M10 1h160M8 2h2M170 2h2M6 3h2M172 3h2M5 4h1M174 4h1M4 5h1M175 5h1M3 6h1M176 6h1M3 7h1M176 7h1M2 8h1M177 8h1M2 9h1M177 9h1M1 10h1M178 10h1M1 11h1M178 11h1M1 12h1M178 12h1M1 13h1M178 13h1M1 14h1M178 14h1M1 15h1M178 15h1M1 16h1M178 16h1M1 17h1M178 17h1M1 18h1M178 18h1M1 19h1M178 19h1M1 20h1M178 20h1M1 21h1M178 21h1M1 22h1M178 22h1M1 23h1M178 23h1M1 24h1M178 24h1M1 25h1M178 25h1M1 26h1M178 26h1M1 27h1M178 27h1M1 28h1M178 28h1M1 29h1M178 29h1M1 30h1M178 30h1M1 31h1M178 31h1M1 32h1M178 32h1M1 33h1M178 33h1M1 34h1M178 34h1M1 35h1M178 35h1M1 36h1M178 36h1M1 37h1M178 37h1M1 38h1M178 38h1M1 39h1M178 39h1M1 40h1M43 40h95M178 40h1M1 41h1M42 41h1M138 41h1M178 41h1M1 42h1M41 42h1M178 42h1M1 43h1M40 43h1M178 43h1M1 44h1M40 44h1M178 44h1M1 45h1M40 45h1M136 45h1M178 45h1M1 46h1M40 46h1M135 46h2M178 46h1M1 47h1M40 47h1M135 47h2M178 47h1M1 48h1M40 48h1M135 48h2M178 48h1M1 49h1M40 49h1M135 49h2M178 49h1M1 50h1M40 50h1M135 50h2M178 50h1M1 51h1M40 51h1M135 51h2M178 51h1M1 52h1M40 52h1M135 52h2M178 52h1M1 53h1M40 53h1M135 53h2M178 53h1M1 54h1M40 54h1M135 54h2M178 54h1M1 55h1M40 55h1M135 55h2M178 55h1M1 56h1M40 56h1M135 56h2M178 56h1M1 57h1M40 57h1M135 57h2M178 57h1M1 58h1M40 58h1M135 58h2M178 58h1M1 59h1M40 59h1M135 59h2M178 59h1M1 60h1M40 60h1M135 60h2M178 60h1M1 61h1M40 61h1M135 61h2M178 61h1M1 62h1M40 62h1M135 62h2M178 62h1M1 63h1M40 63h1M135 63h2M178 63h1M1 64h1M40 64h1M135 64h2M178 64h1M1 65h1M40 65h1M135 65h2M178 65h1M1 66h1M40 66h1M135 66h2M178 66h1M1 67h1M40 67h1M135 67h2M178 67h1M1 68h1M40 68h1M135 68h2M178 68h1M1 69h1M40 69h1M135 69h2M178 69h1M1 70h1M40 70h1M135 70h2M178 70h1M1 71h1M40 71h1M135 71h2M178 71h1M1 72h1M40 72h1M135 72h2M178 72h1M1 73h1M40 73h1M135 73h2M178 73h1M1 74h1M40 74h1M135 74h2M178 74h1M1 75h1M40 75h1M135 75h2M178 75h1M1 76h1M40 76h1M135 76h2M178 76h1M1 77h1M40 77h1M135 77h2M178 77h1M1 78h1M40 78h1M135 78h2M178 78h1M1 79h1M40 79h1M135 79h2M178 79h1M1 80h1M40 80h1M135 80h2M178 80h1M1 81h1M40 81h1M135 81h2M178 81h1M1 82h1M40 82h1M135 82h2M178 82h1M1 83h1M40 83h1M135 83h2M178 83h1M1 84h1M40 84h1M135 84h2M178 84h1M1 85h1M40 85h1M135 85h2M178 85h1M1 86h1M40 86h1M135 86h2M178 86h1M1 87h1M40 87h1M135 87h2M178 87h1M1 88h1M40 88h1M135 88h2M178 88h1M1 89h1M40 89h1M135 89h2M178 89h1M1 90h1M40 90h1M135 90h2M178 90h1M1 91h1M40 91h1M135 91h2M178 91h1M1 92h1M40 92h1M135 92h2M178 92h1M1 93h1M40 93h1M135 93h2M178 93h1M1 94h1M40 94h1M135 94h2M178 94h1M1 95h1M40 95h1M135 95h2M178 95h1M1 96h1M40 96h1M135 96h2M178 96h1M1 97h1M40 97h1M135 97h2M178 97h1M1 98h1M40 98h1M135 98h2M178 98h1M1 99h1M40 99h1M135 99h2M178 99h1M1 100h1M40 100h1M135 100h2M178 100h1M1 101h1M40 101h1M135 101h2M178 101h1M1 102h1M40 102h1M135 102h2M178 102h1M1 103h1M40 103h1M135 103h2M178 103h1M1 104h1M40 104h1M135 104h2M178 104h1M1 105h1M40 105h1M135 105h2M178 105h1M1 106h1M40 106h1M135 106h2M178 106h1M1 107h1M40 107h1M135 107h2M178 107h1M1 108h1M40 108h1M135 108h2M178 108h1M1 109h1M40 109h1M135 109h2M178 109h1M1 110h1M40 110h1M135 110h2M178 110h1M1 111h1M40 111h1M135 111h2M178 111h1M1 112h1M40 112h1M135 112h2M178 112h1M1 113h1M40 113h1M135 113h2M178 113h1M1 114h1M40 114h1M135 114h2M178 114h1M1 115h1M40 115h1M135 115h2M178 115h1M1 116h1M40 116h1M135 116h2M178 116h1M1 117h1M40 117h1M135 117h2M178 117h1M1 118h1M40 118h1M135 118h2M178 118h1M1 119h1M40 119h1M135 119h2M178 119h1M1 120h1M40 120h1M135 120h2M178 120h1M1 121h1M40 121h1M135 121h2M178 121h1M1 122h1M40 122h1M135 122h2M178 122h1M1 123h1M40 123h1M135 123h2M178 123h1M1 124h1M40 124h1M135 124h2M178 124h1M1 125h1M40 125h1M135 125h2M178 125h1M1 126h1M40 126h1M135 126h2M178 126h1M1 127h1M40 127h1M135 127h2M178 127h1M1 128h1M40 128h1M135 128h2M178 128h1M1 129h1M40 129h1M135 129h2M178 129h1M1 130h1M40 130h1M135 130h2M178 130h1M1 131h1M40 131h1M135 131h2M178 131h1M1 132h1M40 132h1M135 132h2M178 132h1M1 133h1M40 133h1M135 133h2M178 133h1M1 134h1M40 134h1M135 134h2M178 134h1M1 135h1M40 135h1M46 135h91M178 135h1M1 136h1M40 136h1M45 136h92M178 136h1M1 137h1M40 137h1M178 137h1M1 138h1M178 138h1M1 139h1M178 139h1M1 140h1M178 140h1M1 141h1M178 141h1M1 142h1M178 142h1M1 143h1M178 143h1M1 144h1M178 144h1M1 145h1M178 145h1M1 146h1M178 146h1M1 147h1M178 147h1M1 148h1M178 148h1M1 149h1M178 149h1M1 150h1M178 150h1M1 151h1M178 151h1M1 152h1M178 152h1M1 153h1M178 153h1M1 154h1M178 154h1M1 155h1M178 155h1M1 156h1M178 156h1M1 157h1M178 157h1M1 158h1M178 158h1M1 159h1M178 159h1M1 160h1M178 160h1M1 161h1M178 161h1M1 162h1M178 162h1M1 163h1M178 163h1M1 164h1M178 164h1M1 165h1M178 165h1M1 166h1M178 166h1M1 167h1M178 167h1M1 168h1M178 168h1M1 169h1M178 169h1M1 170h1M178 170h1M1 171h1M178 171h1M1 172h1M178 172h1M1 173h1M178 173h1M1 174h1M178 174h1M1 175h1M178 175h1M1 176h1M178 176h1M1 177h1M178 177h1M1 178h1M178 178h1M1 179h1M178 179h1M1 180h1M178 180h1M1 181h1M178 181h1M1 182h1M178 182h1M1 183h1M178 183h1M1 184h1M178 184h1M1 185h1M178 185h1M1 186h1M178 186h1M1 187h1M178 187h1M1 188h1M178 188h1M1 189h1M178 189h1M1 190h1M178 190h1M1 191h1M178 191h1M1 192h1M178 192h1M1 193h1M178 193h1M1 194h1M178 194h1M1 195h1M178 195h1M1 196h1M178 196h1M1 197h1M178 197h1M1 198h1M178 198h1M1 199h1M178 199h1M1 200h1M178 200h1M1 201h1M172 201h1M178 201h1M1 202h1M172 202h1M178 202h1M1 203h1M173 203h1M178 203h1M1 204h1M173 204h1M178 204h1M1 205h1M173 205h1M178 205h1M1 206h1M173 206h1M178 206h1M1 207h1M173 207h1M178 207h1M1 208h1M173 208h1M178 208h1M1 209h1M173 209h1M178 209h1M1 210h1M173 210h1M178 210h1M1 211h1M173 211h1M178 211h1M1 212h1M173 212h1M178 212h1M1 213h1M173 213h1M178 213h1M1 214h1M173 214h1M178 214h1M1 215h1M173 215h1M178 215h1M1 216h1M173 216h1M178 216h1M1 217h1M173 217h1M178 217h1M1 218h1M173 218h1M178 218h1M1 219h1M173 219h1M178 219h1M1 220h1M173 220h1M178 220h1M1 221h1M173 221h1M178 221h1M1 222h1M173 222h1M178 222h1M1 223h1M173 223h1M178 223h1M1 224h1M173 224h1M178 224h1M1 225h1M173 225h1M178 225h1M1 226h1M173 226h1M178 226h1M2 227h1M173 227h1M177 227h1M2 228h1M173 228h1M177 228h1M3 229h1M173 229h1M176 229h1M3 230h1M172 230h1M176 230h1M4 231h1M172 231h1M175 231h1M4 232h1M171 232h1M175 232h1M5 233h1M143 233h2M169 233h2M174 233h1M6 234h2M145 234h24M172 234h2M8 235h2M170 235h2M10 236h160" />
    <path stroke="#ffffff" d="M10 2h160M8 3h164M6 4h168M5 5h170M4 6h172M4 7h172M3 8h174M3 9h174M2 10h176M2 11h176M2 12h176M2 13h176M2 14h176M2 15h176M2 16h176M2 17h176M2 18h176M2 19h176M2 20h176M2 21h176M2 22h176M2 23h176M2 24h176M2 25h176M2 26h176M2 27h176M2 28h176M2 29h176M2 30h176M2 31h176M2 32h176M2 33h176M2 34h176M2 35h176M2 36h176M2 37h176M2 38h176M2 39h176M2 40h41M138 40h40M2 41h40M139 41h39M2 42h39M140 42h38M2 43h38M141 43h37M2 44h38M141 44h37M2 45h38M141 45h37M2 46h38M46 46h89M141 46h37M2 47h38M46 47h89M141 47h37M2 48h38M46 48h89M141 48h37M2 49h38M46 49h89M141 49h37M2 50h38M46 50h89M141 50h37M2 51h38M46 51h89M141 51h37M2 52h38M46 52h89M141 52h37M2 53h38M46 53h89M141 53h37M2 54h38M46 54h89M141 54h37M2 55h38M46 55h89M141 55h37M2 56h38M46 56h89M141 56h37M2 57h38M46 57h89M141 57h37M2 58h38M46 58h89M141 58h37M2 59h38M46 59h89M141 59h37M2 60h38M46 60h89M141 60h37M2 61h38M46 61h89M141 61h37M2 62h38M46 62h89M141 62h37M2 63h38M46 63h89M141 63h37M2 64h38M46 64h89M141 64h37M2 65h38M46 65h89M141 65h37M2 66h38M46 66h89M141 66h37M2 67h38M46 67h89M141 67h37M2 68h38M46 68h89M141 68h37M2 69h38M46 69h89M141 69h37M2 70h38M46 70h89M141 70h37M2 71h38M46 71h89M141 71h37M2 72h38M46 72h89M141 72h37M2 73h38M46 73h89M141 73h37M2 74h38M46 74h89M141 74h37M2 75h38M46 75h89M141 75h37M2 76h38M46 76h89M141 76h37M2 77h38M46 77h89M141 77h37M2 78h38M46 78h89M141 78h37M2 79h38M46 79h89M141 79h37M2 80h38M46 80h89M141 80h37M2 81h38M46 81h89M141 81h37M2 82h38M46 82h89M141 82h37M2 83h38M46 83h89M141 83h37M2 84h38M46 84h89M141 84h37M2 85h38M46 85h89M141 85h37M2 86h38M46 86h89M141 86h37M2 87h38M46 87h89M141 87h37M2 88h38M46 88h89M141 88h37M2 89h38M46 89h89M141 89h37M2 90h38M46 90h89M141 90h37M2 91h38M46 91h89M141 91h37M2 92h38M46 92h89M141 92h37M2 93h38M46 93h89M141 93h37M2 94h38M46 94h89M141 94h37M2 95h38M46 95h89M141 95h37M2 96h38M46 96h89M141 96h37M2 97h38M46 97h89M141 97h37M2 98h38M46 98h89M141 98h37M2 99h38M46 99h89M141 99h37M2 100h38M46 100h89M141 100h37M2 101h38M46 101h89M141 101h37M2 102h38M46 102h89M141 102h37M2 103h38M46 103h89M141 103h37M2 104h38M46 104h89M141 104h37M2 105h38M46 105h89M141 105h37M2 106h38M46 106h89M141 106h37M2 107h38M46 107h89M141 107h37M2 108h38M46 108h89M141 108h37M2 109h38M46 109h89M141 109h37M2 110h38M46 110h89M141 110h37M2 111h38M46 111h89M141 111h37M2 112h38M46 112h89M141 112h37M2 113h38M46 113h89M141 113h37M2 114h38M46 114h89M141 114h37M2 115h38M46 115h89M141 115h37M2 116h38M46 116h89M141 116h37M2 117h38M46 117h89M141 117h37M2 118h38M46 118h89M141 118h37M2 119h38M46 119h89M141 119h37M2 120h38M46 120h89M141 120h37M2 121h38M46 121h89M141 121h37M2 122h38M46 122h89M141 122h37M2 123h38M46 123h89M141 123h37M2 124h38M46 124h89M141 124h37M2 125h38M46 125h89M141 125h37M2 126h38M46 126h89M141 126h37M2 127h38M46 127h89M141 127h37M2 128h38M46 128h89M141 128h37M2 129h38M46 129h89M141 129h37M2 130h38M46 130h89M141 130h37M2 131h38M46 131h89M141 131h37M2 132h38M46 132h89M141 132h37M2 133h38M46 133h89M141 133h37M2 134h38M46 134h89M141 134h37M2 135h38M141 135h37M2 136h38M141 136h37M2 137h38M141 137h37M2 138h39M140 138h38M2 139h40M139 139h39M2 140h41M138 140h40M2 141h176M2 142h176M2 143h176M2 144h176M2 145h176M2 146h176M2 147h176M2 148h176M2 149h176M2 150h176M2 151h176M2 152h176M2 153h176M2 154h176M2 155h176M2 156h176M2 157h176M2 158h176M2 159h176M2 160h176M2 161h176M2 162h176M2 163h176M2 164h176M2 165h176M2 166h176M2 167h176M2 168h176M2 169h176M2 170h176M2 171h176M2 172h176M2 173h176M2 174h176M2 175h176M2 176h176M2 177h176M2 178h176M2 179h176M2 180h176M2 181h176M2 182h176M2 183h176M2 184h176M2 185h176M2 186h176M2 187h176M2 188h176M2 189h176M2 190h176M2 191h176M2 192h176M2 193h176M2 194h176M2 195h176M2 196h176M2 197h176M2 198h143M169 198h9M2 199h141M145 199h24M171 199h7M2 200h140M143 200h7M154 200h17M172 200h6M2 201h139M142 201h7M152 201h1M155 201h17M173 201h5M2 202h139M142 202h6M156 202h16M173 202h5M2 203h138M141 203h7M156 203h7M166 203h7M174 203h4M2 204h138M141 204h7M150 204h5M160 204h2M167 204h6M174 204h4M2 205h138M141 205h5M151 205h9M162 205h1M167 205h6M174 205h4M2 206h138M141 206h4M147 206h3M152 206h12M167 206h6M174 206h4M2 207h138M141 207h4M146 207h7M154 207h12M167 207h6M174 207h4M2 208h138M141 208h3M146 208h13M161 208h2M167 208h6M174 208h4M2 209h138M141 209h2M145 209h13M167 209h6M174 209h4M2 210h138M141 210h2M144 210h10M162 210h1M165 210h1M167 210h6M174 210h4M2 211h138M141 211h2M144 211h9M154 211h6M161 211h5M168 211h5M174 211h4M2 212h138M141 212h1M144 212h8M153 212h1M159 212h2M162 212h1M166 212h1M168 212h5M174 212h4M2 213h138M141 213h1M144 213h6M158 213h1M160 213h2M163 213h3M169 213h4M174 213h4M2 214h138M141 214h1M144 214h2M154 214h6M164 214h2M169 214h4M174 214h4M2 215h138M141 215h2M146 215h1M170 215h3M174 215h4M2 216h138M141 216h4M147 216h2M156 216h2M170 216h3M174 216h4M2 217h138M141 217h5M148 217h3M157 217h2M169 217h4M174 217h4M2 218h138M141 218h6M150 218h9M168 218h5M174 218h4M2 219h138M141 219h7M152 219h6M168 219h5M174 219h4M2 220h138M141 220h8M153 220h3M168 220h5M174 220h4M2 221h138M141 221h10M168 221h2M172 221h1M174 221h4M2 222h138M141 222h5M150 222h3M170 222h1M172 222h1M174 222h4M2 223h138M141 223h4M151 223h5M157 223h1M162 223h1M167 223h1M170 223h1M172 223h1M174 223h4M2 224h138M141 224h3M152 224h2M155 224h1M160 224h1M162 224h1M165 224h1M167 224h1M170 224h1M172 224h1M174 224h4M2 225h138M141 225h2M149 225h1M153 225h1M155 225h2M158 225h3M162 225h1M165 225h1M167 225h2M172 225h1M174 225h4M2 226h138M141 226h2M147 226h3M153 226h1M158 226h3M162 226h2M165 226h1M167 226h6M174 226h4M3 227h137M141 227h2M147 227h3M153 227h5M159 227h1M162 227h1M165 227h1M167 227h3M171 227h2M174 227h3M3 228h137M141 228h2M149 228h1M153 228h5M162 228h2M165 228h1M170 228h3M174 228h3M4 229h136M141 229h3M152 229h7M161 229h3M165 229h8M174 229h2M4 230h137M142 230h3M151 230h8M160 230h3M165 230h1M169 230h3M173 230h3M5 231h136M142 231h4M150 231h10M165 231h2M168 231h4M173 231h2M5 232h137M143 232h28M172 232h3M6 233h137M145 233h24M171 233h3M8 234h137M169 234h3M10 235h160" />
    <path stroke="#757575" d="M43 41h95M42 42h97M41 43h99M41 44h4M136 44h4M41 45h3M135 45h1M137 45h3M41 46h3M137 46h3M41 47h3M137 47h3M41 48h3M137 48h3M41 49h3M137 49h3M41 50h3M137 50h3M41 51h3M137 51h3M41 52h3M137 52h3M41 53h3M137 53h3M41 54h3M137 54h3M41 55h3M137 55h3M41 56h3M137 56h3M41 57h3M137 57h3M41 58h3M137 58h3M41 59h3M137 59h3M41 60h3M137 60h3M41 61h3M137 61h3M41 62h3M137 62h3M41 63h3M137 63h3M41 64h3M137 64h3M41 65h3M137 65h3M41 66h3M137 66h3M41 67h3M137 67h3M41 68h3M137 68h3M41 69h3M137 69h3M41 70h3M137 70h3M41 71h3M137 71h3M41 72h3M137 72h3M41 73h3M137 73h3M41 74h3M137 74h3M41 75h3M137 75h3M41 76h3M137 76h3M41 77h3M137 77h3M41 78h3M137 78h3M41 79h3M137 79h3M41 80h3M137 80h3M41 81h3M137 81h3M41 82h3M137 82h3M41 83h3M137 83h3M41 84h3M137 84h3M41 85h3M137 85h3M41 86h3M137 86h3M41 87h3M137 87h3M41 88h3M137 88h3M41 89h3M137 89h3M41 90h3M137 90h3M41 91h3M137 91h3M41 92h3M137 92h3M41 93h3M137 93h3M41 94h3M137 94h3M41 95h3M137 95h3M41 96h3M137 96h3M41 97h3M137 97h3M41 98h3M137 98h3M41 99h3M137 99h3M41 100h3M137 100h3M41 101h3M137 101h3M41 102h3M137 102h3M41 103h3M137 103h3M41 104h3M137 104h3M41 105h3M137 105h3M41 106h3M137 106h3M41 107h3M137 107h3M41 108h3M137 108h3M41 109h3M137 109h3M41 110h3M137 110h3M41 111h3M137 111h3M41 112h3M137 112h3M41 113h3M137 113h3M41 114h3M137 114h3M41 115h3M137 115h3M41 116h3M137 116h3M41 117h3M137 117h3M41 118h3M137 118h3M41 119h3M137 119h3M41 120h3M137 120h3M41 121h3M137 121h3M41 122h3M137 122h3M41 123h3M137 123h3M41 124h3M137 124h3M41 125h3M137 125h3M41 126h3M137 126h3M41 127h3M137 127h3M41 128h3M137 128h3M41 129h3M137 129h3M41 130h3M137 130h3M41 131h3M137 131h3M41 132h3M137 132h3M41 133h3M137 133h3M41 134h3M137 134h3M41 135h3M45 135h1M137 135h3M41 136h4M137 136h3M41 137h99M42 138h97M43 139h95M145 198h24M143 199h2M169 199h2M142 200h1M171 200h1M141 201h1M141 202h1M140 203h1M140 204h1M140 205h1M140 206h1M140 207h1M140 208h1M140 209h1M140 210h1M140 211h1M140 212h1M140 213h1M140 214h1M140 215h1M140 216h1M140 217h1M140 218h1M140 219h1M140 220h1M140 221h1M140 222h1M140 223h1M140 224h1M140 225h1M140 226h1M1 227h1M140 227h1M178 227h1M1 228h1M140 228h1M178 228h1M1 229h2M140 229h1M177 229h2M2 230h1M141 230h1M177 230h1M2 231h2M141 231h1M176 231h2M3 232h1M142 232h1M176 232h1M3 233h2M175 233h2M4 234h2M174 234h2M5 235h3M172 235h3M6 236h4M170 236h4M8 237h164M10 238h160" />
    <path stroke="#000000" d="M150 200h4M149 201h1M154 201h1M148 202h1M151 202h2M155 202h1M148 203h1M150 203h1M155 203h1M163 203h3M148 204h1M155 204h5M162 204h1M166 204h1M146 205h2M160 205h2M164 205h1M166 205h1M145 206h1M165 206h1M145 207h1M166 207h1M144 208h1M166 208h1M143 209h1M160 209h1M164 209h1M143 210h1M154 210h6M166 210h1M143 211h1M153 211h1M160 211h1M167 211h1M142 212h1M152 212h1M161 212h1M163 212h3M167 212h1M142 213h1M150 213h2M162 213h1M166 213h1M168 213h1M142 214h1M146 214h4M160 214h4M166 214h1M168 214h1M143 215h2M150 215h10M161 215h1M164 215h2M167 215h1M169 215h1M145 216h1M158 216h1M161 216h1M163 216h1M165 216h1M167 216h1M169 216h1M146 217h1M159 217h1M161 217h1M163 217h1M165 217h1M167 217h2M147 218h1M159 218h1M161 218h1M163 218h1M165 218h1M167 218h1M148 219h1M159 219h1M161 219h1M163 219h1M165 219h3M149 220h2M159 220h1M161 220h1M163 220h3M167 220h1M151 221h2M159 221h1M161 221h3M165 221h1M167 221h1M170 221h1M153 222h9M163 222h1M165 222h1M168 222h2M146 223h4M156 223h1M159 223h1M161 223h1M163 223h1M166 223h1M145 224h1M150 224h1M157 224h2M161 224h1M164 224h1M166 224h1M168 224h1M171 224h1M144 225h1M147 225h2M151 225h1M154 225h1M161 225h1M164 225h1M166 225h1M169 225h2M144 226h1M146 226h1M151 226h1M155 226h2M161 226h1M164 226h1M166 226h1M144 227h1M146 227h1M151 227h1M158 227h1M161 227h1M164 227h1M166 227h1M144 228h1M147 228h2M151 228h1M158 228h1M161 228h1M164 228h1M167 228h2M145 229h1M150 229h1M159 229h2M164 229h1M146 230h4M164 230h1M166 230h1M168 230h1M161 231h3M167 231h1" />
    <path stroke="#d5d5d5" d="M150 201h2M149 202h1M153 202h1M149 203h1M151 203h3M163 204h2M149 205h2M165 205h1M150 206h2M164 206h1M153 207h1M163 208h1M158 209h2M161 209h3M160 210h2M163 210h2M143 213h1M154 213h4M150 214h1M152 214h2M146 216h1M168 216h1M151 217h4M166 217h1M149 218h1M162 218h1M164 218h1M166 218h1M150 219h2M158 219h1M162 219h1M164 219h1M152 220h1M156 220h3M160 220h1M162 220h1M166 220h1M154 221h3M160 221h1M164 221h1M166 221h1M171 221h1M146 222h4M162 222h1M164 222h1M166 222h2M171 222h1M145 223h1M150 223h1M158 223h1M160 223h1M164 223h2M168 223h2M171 223h1M144 224h1M146 224h4M151 224h1M154 224h1M156 224h1M159 224h1M163 224h1M169 224h1M143 225h1M145 225h2M150 225h1M152 225h1M157 225h1M163 225h1M171 225h1M143 226h1M145 226h1M150 226h1M152 226h1M154 226h1M157 226h1M143 227h1M145 227h1M150 227h1M152 227h1M160 227h1M163 227h1M170 227h1M143 228h1M145 228h2M150 228h1M152 228h1M159 228h2M166 228h1M169 228h1M144 229h1M146 229h4M151 229h1M145 230h1M150 230h1M159 230h1M163 230h1M167 230h1M146 231h4M160 231h1M164 231h1" />
    <path stroke="#858585" d="M153 201h1M150 202h1M154 202h1M154 203h1M149 204h1M165 204h1M148 205h1M163 205h1M146 206h1M166 206h1M145 208h1M159 208h2M164 208h2M144 209h1M165 209h2M166 211h1M143 212h1M154 212h5M152 213h2M159 213h1M167 213h1M143 214h1M151 214h1M167 214h1M145 215h1M147 215h3M160 215h1M162 215h2M166 215h1M168 215h1M149 216h7M159 216h2M162 216h1M164 216h1M166 216h1M147 217h1M155 217h2M160 217h1M162 217h1M164 217h1M148 218h1M160 218h1M149 219h1M160 219h1M151 220h1M153 221h1M157 221h2" />
</svg>