<svg xmlns="http://www.w3.org/2000/svg" viewBox="0 -0.5 16 16" shape-rendering="crispEdges">
    <path stroke="#000f14" d="M3 1h10M2 2h1M13 2h1M1 3h1M14 3h1M0 4h1M15 4h1M0 5h1M15 5h1M0 6h1M15 6h1M0 7h1M15 7h1M0 8h1M15 8h1M0 9h1M15 9h1M0 10h1M15 10h1M0 11h1M15 11h1M0 12h1M15 12h1M1 13h1M14 13h1M2 14h1M13 14h1M3 15h10" />
    <path stroke="#009ddc" d="M3 2h10M2 3h12M1 4h14M1 5h14M1 6h14M1 7h14M1 8h14M1 9h14M1 10h14M2 11h12M3 12h10" />
    <path stroke="#6bbbdb" d="M1 11h1M14 11h1M2 12h1M13 12h1M3 13h10" />
    <path stroke="#004c6b" d="M1 12h1M14 12h1M2 13h1M13 13h1M3 14h10" />
</svg>