<svg xmlns="http://www.w3.org/2000/svg" viewBox="0 -0.5 16 16" shape-rendering="crispEdges">
<metadata>Made with Pixels to Svg https://codepen.io/shshaw/pen/XbxvNj</metadata>
<path stroke="#000000" d="M12 0h4M11 1h1M15 1h1M10 2h1M13 2h1M15 2h1M9 3h1M12 3h1M15 3h1M8 4h1M11 4h1M14 4h1M7 5h1M10 5h1M13 5h1M2 6h2M6 6h1M9 6h1M12 6h1M2 7h1M4 7h2M8 7h1M11 7h1M3 8h1M5 8h1M7 8h1M10 8h1M3 9h1M5 9h2M9 9h1M4 10h1M6 10h3M3 11h1M5 11h1M8 11h1M2 12h1M4 12h1M6 12h2M9 12h1M0 13h2M3 13h1M8 13h2M0 14h1M2 14h1M0 15h3" />
</svg>