<svg xmlns="http://www.w3.org/2000/svg" viewBox="0 -0.5 16 15" shape-rendering="crispEdges">
    <path stroke="#1f1f1f" d="M3 0h10M2 1h1M13 1h1M1 2h1M14 2h1M0 3h1M15 3h1M0 4h1M15 4h1M0 5h1M15 5h1M0 6h1M15 6h1M0 7h1M15 7h1M0 8h1M15 8h1M0 9h1M15 9h1M0 10h1M15 10h1M0 11h1M15 11h1M1 12h1M14 12h1M2 13h1M13 13h1M3 14h10" />
    <path stroke="#c4c4c4" d="M3 1h10M2 2h4M7 2h7M1 3h5M8 3h7M1 4h5M9 4h6M1 5h5M10 5h5M1 6h5M11 6h4M1 7h5M10 7h5M1 8h5M9 8h6M1 9h5M8 9h7M2 10h4M7 10h7M3 11h10" />
    <path stroke="#757575" d="M6 2h1M7 3h1M8 4h1M9 5h1M10 6h1M1 11h1M14 11h1M2 12h1M13 12h1M3 13h10" />
    <path stroke="#ffffff" d="M6 3h1M6 4h2M6 5h3M6 6h4M6 7h4M6 8h3M6 9h2M1 10h1M6 10h1M14 10h1M2 11h1M13 11h1M3 12h10" />
</svg>