<svg xmlns="http://www.w3.org/2000/svg" viewBox="0 -0.5 16 16" shape-rendering="crispEdges">
    <path stroke="#0a0a0a" d="M2 0h12M1 1h1M14 1h1M0 2h1M5 2h6M15 2h1M0 3h1M4 3h1M11 3h1M15 3h1M0 4h1M3 4h1M12 4h1M15 4h1M0 5h1M3 5h1M12 5h1M15 5h1M0 6h1M2 6h1M7 6h2M13 6h1M15 6h1M0 7h1M2 7h1M6 7h1M9 7h1M13 7h1M15 7h1M0 8h1M3 8h10M15 8h1M0 9h1M15 9h1M0 10h1M15 10h1M0 11h1M15 11h1M0 12h1M15 12h1M0 13h1M15 13h1M1 14h1M14 14h1M2 15h12" />
    <path stroke="#a1a1a1" d="M2 1h12M1 2h1M14 2h1M1 3h1M14 3h1M1 4h1M14 4h1M1 5h1M14 5h1M1 6h1M14 6h1M1 7h1M14 7h1M1 8h2M13 8h2M1 9h1M14 9h1M1 10h1M14 10h1M1 11h1M14 11h1M1 12h1M14 12h1M2 13h12" />
    <path stroke="#cbcbcb" d="M2 2h3M11 2h3M2 3h2M12 3h2M2 4h1M13 4h1M2 5h1M13 5h1M2 9h12M2 10h12M2 11h12M2 12h12" />
    <path stroke="#eaeaea" d="M5 3h1M7 3h2M10 3h1M6 4h6M4 5h1M7 5h4M3 6h3M9 6h4M3 7h3M10 7h3" />
    <path stroke="#343434" d="M6 3h1M9 3h1M11 5h1M7 7h2M1 13h1M14 13h1M2 14h12" />
    <path stroke="#6b6b6b" d="M4 4h2M5 5h2M6 6h1" />
</svg>