<svg xmlns="http://www.w3.org/2000/svg" viewBox="0 -0.5 16 16" shape-rendering="crispEdges">
    <path stroke="#1a2123" d="M6 0h4M4 1h2M10 1h2M3 2h1M12 2h1M2 3h1M13 3h1M1 4h1M14 4h1M1 5h1M14 5h1M0 6h1M15 6h1M0 7h1M15 7h1M0 8h1M15 8h1M0 9h1M15 9h1M0 10h2M14 10h1M1 11h1M14 11h1M2 12h1M13 12h1M3 13h1M12 13h1M4 14h2M10 14h2M6 15h4" />
    <path stroke="#9cafb7" d="M6 1h4M4 2h2M10 2h2M3 3h1M12 3h1M2 4h1M13 4h1M2 5h1M13 5h1M1 6h1M14 6h1M1 7h1M14 7h1M1 8h1M14 8h1M1 9h1M14 9h1M2 10h1M13 10h1M2 11h1M13 11h1M3 12h1M12 12h1M4 13h2M10 13h2M6 14h4" />
    <path stroke="#271b16" d="M6 2h4M4 3h2M10 3h2M3 4h1M12 4h1M3 5h1M12 5h1M2 6h1M13 6h1M2 7h1M13 7h1M2 8h1M13 8h1M2 9h1M13 9h1M3 10h1M12 10h1M3 11h1M12 11h1M4 12h2M10 12h2M6 13h4" />
    <path stroke="#765242" d="M6 3h1M9 3h1M6 4h1M9 4h1M6 5h1M9 5h1M3 6h1M6 6h1M9 6h1M12 6h1M3 7h1M6 7h1M9 7h1M12 7h1M3 8h1M6 8h1M9 8h1M12 8h1M3 9h1M6 9h1M9 9h1M12 9h1M6 10h1M9 10h1M6 11h1M9 11h1M6 12h1M9 12h1" />
    <path stroke="#9d6e58" d="M7 3h2M5 4h1M7 4h2M10 4h1M4 5h2M7 5h2M10 5h2M4 6h2M7 6h2M10 6h2M4 7h2M7 7h2M10 7h2M4 8h2M7 8h2M10 8h2M4 9h2M7 9h2M10 9h2M4 10h2M7 10h2M10 10h2M5 11h1M7 11h2M10 11h1M7 12h2" />
    <path stroke="#c4a697" d="M4 4h1M11 4h1M4 11h1M11 11h1" />
</svg>