<svg xmlns="http://www.w3.org/2000/svg" viewBox="0 -0.5 16 16" shape-rendering="crispEdges">
    <path stroke="#000000" d="M6 0h4M3 1h3M10 1h3M0 2h3M7 2h2M13 2h3M0 3h1M4 3h3M9 3h3M15 3h1M0 4h1M2 4h1M13 4h1M15 4h1M0 5h1M2 5h1M13 5h1M15 5h1M0 6h1M2 6h1M13 6h1M15 6h1M0 7h1M3 7h1M12 7h1M15 7h1M1 8h1M3 8h1M12 8h1M14 8h1M1 9h1M3 9h1M12 9h1M14 9h1M1 10h1M3 10h1M12 10h1M14 10h1M2 11h1M4 11h2M10 11h2M13 11h1M2 12h1M6 12h1M9 12h1M13 12h1M3 13h2M7 13h2M11 13h2M5 14h2M9 14h2M7 15h2" />
    <path stroke="#ffffff" d="M6 1h4M3 2h4M9 2h4M1 3h3M12 3h3M1 4h1M14 4h1M1 5h1M14 5h1M1 6h1M14 6h1M1 7h2M13 7h2M2 8h1M13 8h1M2 9h1M13 9h1M2 10h1M13 10h1M3 11h1M12 11h1M3 12h3M10 12h3M5 13h2M9 13h2M7 14h2" />
    <path stroke="#9cafb7" d="M7 3h2M3 4h10M3 5h5M9 5h4M3 6h4M9 6h4M4 7h2M10 7h2M4 8h3M9 8h3M4 9h3M8 9h4M4 10h8M6 11h4M7 12h2" />
    <path stroke="#f6ca83" d="M8 5h1M7 6h2M6 7h4M7 8h2M7 9h1" />
</svg>