<svg xmlns="http://www.w3.org/2000/svg" viewBox="0 -0.5 16 16" shape-rendering="crispEdges">
    <path stroke="#1a2123" d="M6 0h4M1 1h5M10 1h5M0 2h1M15 2h1M0 3h1M15 3h1M0 4h1M15 4h1M0 5h1M15 5h1M0 6h1M15 6h1M0 7h1M15 7h1M1 8h1M14 8h1M1 9h1M14 9h1M1 10h1M14 10h1M1 11h1M14 11h1M2 12h1M13 12h1M3 13h2M11 13h2M5 14h1M10 14h1M6 15h4" />
    <path stroke="#9cafb7" d="M6 1h4M1 2h6M9 2h6M1 3h1M14 3h1M1 4h1M14 4h1M1 5h1M14 5h1M1 6h1M14 6h1M1 7h2M13 7h2M2 8h1M13 8h1M2 9h1M13 9h1M2 10h1M13 10h1M2 11h2M12 11h2M3 12h3M10 12h3M5 13h2M9 13h2M6 14h4" />
    <path stroke="#271b16" d="M7 2h2M2 3h5M9 3h5M2 4h1M13 4h1M2 5h1M13 5h1M2 6h1M13 6h1M3 7h1M12 7h1M3 8h1M12 8h1M3 9h1M12 9h1M3 10h1M12 10h1M4 11h2M10 11h2M6 12h1M9 12h1M7 13h2" />
    <path stroke="#9d6e58" d="M7 3h2M4 4h2M7 4h2M10 4h2M4 5h2M7 5h2M10 5h2M4 6h2M7 6h2M10 6h2M4 7h2M7 7h2M10 7h2M4 8h2M7 8h2M10 8h2M4 9h2M7 9h2M10 9h2M5 10h1M7 10h2M10 10h1M7 11h2" />
    <path stroke="#765242" d="M3 4h1M6 4h1M9 4h1M12 4h1M3 5h1M6 5h1M9 5h1M12 5h1M3 6h1M6 6h1M9 6h1M12 6h1M6 7h1M9 7h1M6 8h1M9 8h1M6 9h1M9 9h1M4 10h1M6 10h1M9 10h1M11 10h1M6 11h1M9 11h1M7 12h2" />
</svg>