<svg xmlns="http://www.w3.org/2000/svg" viewBox="0 -0.5 16 16" shape-rendering="crispEdges">
    <path stroke="#000f14" d="M3 0h10M2 1h1M13 1h1M1 2h1M14 2h1M0 3h1M15 3h1M0 4h1M15 4h1M0 5h1M15 5h1M0 6h1M15 6h1M0 7h1M15 7h1M0 8h1M15 8h1M0 9h1M15 9h1M0 10h1M15 10h1M0 11h1M15 11h1M0 12h1M15 12h1M1 13h1M14 13h1M2 14h1M13 14h1M3 15h10" />
    <path stroke="#009ddc" d="M3 1h10M2 2h3M11 2h3M1 3h3M5 3h6M12 3h3M1 4h3M5 4h2M8 4h3M12 4h3M1 5h6M9 5h2M12 5h3M1 6h3M10 6h1M12 6h3M1 7h6M9 7h2M12 7h3M1 8h3M5 8h2M8 8h3M12 8h3M1 9h3M5 9h6M12 9h3M2 10h3M11 10h3M3 11h10" />
    <path stroke="#ffffff" d="M5 2h6M4 3h1M11 3h1M4 4h1M7 4h1M11 4h1M7 5h2M11 5h1M4 6h6M11 6h1M7 7h2M11 7h1M4 8h1M7 8h1M11 8h1M4 9h1M11 9h1M5 10h6" />
    <path stroke="#6bbbdb" d="M1 10h1M14 10h1M2 11h1M13 11h1M3 12h10" />
    <path stroke="#004c6b" d="M1 11h1M14 11h1M1 12h2M13 12h2M2 13h12M3 14h10" />
</svg>