<svg xmlns="http://www.w3.org/2000/svg" viewBox="0 -0.5 16 16" shape-rendering="crispEdges">
    <path stroke="#000f14" d="M3 1h10M2 2h1M13 2h1M1 3h1M14 3h1M0 4h1M15 4h1M0 5h1M15 5h1M0 6h1M15 6h1M0 7h1M15 7h1M0 8h1M15 8h1M0 9h1M15 9h1M0 10h1M15 10h1M0 11h1M15 11h1M0 12h1M15 12h1M1 13h1M14 13h1M2 14h1M13 14h1M3 15h10" />
    <path stroke="#009ddc" d="M3 2h10M2 3h3M11 3h3M1 4h3M5 4h6M12 4h3M1 5h3M5 5h2M8 5h3M12 5h3M1 6h6M9 6h2M12 6h3M1 7h3M10 7h1M12 7h3M1 8h6M9 8h2M12 8h3M1 9h3M5 9h2M8 9h3M12 9h3M1 10h3M5 10h6M12 10h3M2 11h3M11 11h3M3 12h10" />
    <path stroke="#ffffff" d="M5 3h6M4 4h1M11 4h1M4 5h1M7 5h1M11 5h1M7 6h2M11 6h1M4 7h6M11 7h1M7 8h2M11 8h1M4 9h1M7 9h1M11 9h1M4 10h1M11 10h1M5 11h6" />
    <path stroke="#6bbbdb" d="M1 11h1M14 11h1M2 12h1M13 12h1M3 13h10" />
    <path stroke="#004c6b" d="M1 12h1M14 12h1M2 13h1M13 13h1M3 14h10" />
</svg>