<svg xmlns="http://www.w3.org/2000/svg" viewBox="0 -0.5 16 16" shape-rendering="crispEdges">
    <path stroke="#1f1f1f" d="M12 0h4M11 1h1M15 1h1M10 2h1M15 2h1M9 3h1M15 3h1M8 4h1M14 4h1M7 5h1M13 5h1M6 6h1M12 6h1M5 7h1M8 7h1M11 7h1M7 8h1M10 8h1M9 9h1M8 10h1" />
    <path stroke="#ffffff" d="M12 1h3M11 2h1M14 2h1M10 3h1M14 3h1M9 4h1M13 4h1M8 5h1M12 5h1M7 6h1M11 6h1M6 7h1M10 7h1M9 8h1M8 9h1" />
    <path stroke="#a9a9a9" d="M12 2h2M11 3h3M10 4h3M9 5h3M8 6h3M7 7h1M9 7h1M6 8h1M8 8h1M7 9h1" />
    <path stroke="#151515" d="M2 6h2M2 7h1M4 7h1M3 8h1M5 8h1M4 9h1M6 9h1M4 10h1M7 10h1M3 11h1M5 11h2M8 11h1M2 12h1M4 12h1M7 12h1M9 12h1M0 13h2M3 13h1M8 13h2M0 14h1M2 14h1M0 15h3" />
    <path stroke="#bfbfbf" d="M3 7h1M4 8h1M5 9h1M5 10h2M4 11h1M7 11h1M3 12h1M8 12h1M2 13h1M1 14h1" />
</svg>