<svg xmlns="http://www.w3.org/2000/svg" viewBox="0 -0.5 16 16" shape-rendering="crispEdges">
    <path stroke="#2f0f0f" d="M2 0h3M2 1h1M4 1h1M2 2h1M4 2h1M2 3h1M5 3h1M2 4h2M6 4h1M3 5h2M7 5h1M4 6h2M5 7h1M10 8h1M11 9h1M8 10h2M12 10h1M9 11h2M13 11h1M10 12h2M13 12h1M11 13h1M13 13h1M11 14h1M13 14h1M11 15h3" />
    <path stroke="#000f14" d="M11 0h3M11 1h1M13 1h1M11 2h1M13 2h1M10 3h1M13 3h1M9 4h1M12 4h2M8 5h1M11 5h2M7 6h1M10 6h2M6 7h1M9 7h2M5 8h1M8 8h2M4 9h1M7 9h2M3 10h1M6 10h2M2 11h1M5 11h2M2 12h1M4 12h2M2 13h1M4 13h1M2 14h1M4 14h1M2 15h3" />
    <path stroke="#c3423f" d="M3 1h1M5 1h3M3 2h1M3 3h1M6 3h2M4 4h1M5 5h1M6 6h1M9 9h1M10 10h1M11 11h1M8 12h2M12 12h1M12 13h1M8 14h3M12 14h1" />
    <path stroke="#009ddc" d="M8 1h3M12 1h1M12 2h1M8 3h2M12 3h1M11 4h1M10 5h1M9 6h1M8 7h1M7 8h1M6 9h1M5 10h1M4 11h1M3 12h1M6 12h2M3 13h1M3 14h1M5 14h3" />
    <path stroke="#dd5f5d" d="M4 3h1M5 4h1M6 5h1M10 9h1M11 10h1M12 11h1" />
    <path stroke="#6bbbdb" d="M11 3h1M10 4h1M9 5h1M8 6h1M7 7h1M6 8h1M5 9h1M4 10h1M3 11h1" />
</svg>