<svg xmlns="http://www.w3.org/2000/svg" viewBox="0 -0.5 16 16" shape-rendering="crispEdges">
    <path stroke="#1f1f1f" d="M3 1h10M2 2h1M13 2h1M1 3h1M14 3h1M0 4h1M15 4h1M0 5h1M15 5h1M0 6h1M15 6h1M0 7h1M15 7h1M0 8h1M15 8h1M0 9h1M15 9h1M0 10h1M15 10h1M0 11h1M15 11h1M0 12h1M15 12h1M1 13h1M14 13h1M2 14h1M13 14h1M3 15h10" />
    <path stroke="#c4c4c4" d="M3 2h10M2 3h12M1 4h6M9 4h6M1 5h5M10 5h5M1 6h4M11 6h4M1 7h3M12 7h3M1 8h2M13 8h2M1 9h14M1 10h14M2 11h12M3 12h10" />
    <path stroke="#757575" d="M7 4h2M6 5h1M5 6h1M4 7h1M3 8h1M1 12h1M14 12h1M2 13h1M13 13h1M3 14h10" />
    <path stroke="#ffffff" d="M7 5h3M6 6h5M5 7h7M4 8h9M1 11h1M14 11h1M2 12h1M13 12h1M3 13h10" />
</svg>